<?xml version="1.0" encoding="utf-8"?>
<!-- Generator: Adobe Illustrator 14.0.0, SVG Export Plug-In . SVG Version: 6.00 Build 43363)  -->
<!DOCTYPE svg PUBLIC "-//W3C//DTD SVG 1.1//EN" "http://www.w3.org/Graphics/SVG/1.1/DTD/svg11.dtd">
<svg version="1.1" id="Layer_1" xmlns="http://www.w3.org/2000/svg" xmlns:xlink="http://www.w3.org/1999/xlink" x="0px" y="0px"
	 width="125px" height="29px" viewBox="0 0 125 29" enable-background="new 0 0 125 29" xml:space="preserve">
<g>
	<path fill="#EAEAEA" d="M118.8,5.861c0-3.674-1.6-5.461-4.7-5.461H11.7C8.5,0.399,7,2.187,7,5.861v17.577
		c0,3.575,1.5,5.362,4.7,5.362h102.4c3.1,0,4.7-1.787,4.7-5.362V5.861z M43.2,10.131c-0.2,0.497-0.5,0.894-0.7,1.39
		c-0.1,0.397-0.2,0.894-0.3,1.291c-0.1,0.497,0,0.894,0.1,1.292c0.1,0.397,0.2,0.894,0.5,1.191c0.2,0.199,0.2,0.397,0.4,0.695
		l-9.8,2.482H14.9c-0.9-1.986-0.9-3.972,0-5.661l9.8-2.681H43.2z"/>
	<path fill="#F8F5E5" d="M42.5,11.521c0.2-0.497,0.5-0.894,0.7-1.39l-9.8,2.681c-0.1,0.298-0.3,0.695-0.4,0.993L42.5,11.521z"/>
	<path fill="#C6452C" d="M43.2,10.131H24.7l-9.8,2.681h18.5L43.2,10.131z M24.9,10.628h15.6l-7.1,1.688h-15L24.9,10.628z"/>
	<path fill="#F6B197" d="M40.5,10.628H24.9l-6.5,1.688h15L40.5,10.628z"/>
	<path fill="#F8F5E5" d="M42.8,15.295c-0.3-0.298-0.4-0.794-0.5-1.191l-9.4,2.383c0,0.497,0.2,0.993,0.3,1.39L42.8,15.295z"/>
	<path fill="#F8F5E5" d="M43.2,15.99c-0.2-0.298-0.2-0.497-0.4-0.695l-9.6,2.582c0.1,0.199,0.2,0.397,0.2,0.596L43.2,15.99z"/>
	<path fill="#F8F5E5" d="M42.3,14.104c-0.1-0.398-0.2-0.795-0.1-1.292l-9.4,2.483c0,0.397,0,0.794,0.1,1.191L42.3,14.104z"/>
	<path fill="#F8F5E5" d="M33,13.805c-0.1,0.497-0.2,0.993-0.2,1.49l9.4-2.483c0.1-0.397,0.2-0.894,0.3-1.291L33,13.805z"/>
	<path fill="#B7533A" d="M32.8,15.295c0-0.497,0.1-0.993,0.2-1.49c0.1-0.298,0.3-0.695,0.4-0.993H14.9c-0.9,1.688-0.9,3.674,0,5.661
		h18.5c0-0.199-0.1-0.397-0.2-0.596c-0.1-0.397-0.3-0.894-0.3-1.39C32.8,16.089,32.8,15.692,32.8,15.295z M32.2,13.507
		c-0.5,1.291-0.5,2.681,0,4.072H15.3c-0.6-1.589-0.6-2.979,0-4.072H32.2z"/>
	<path fill="#C6452C" d="M32.2,17.579c-0.5-1.391-0.5-2.781,0-4.072H15.3c-0.6,1.092-0.6,2.483,0,4.072H32.2z"/>
	<path fill="none" stroke="#A65C45" stroke-width="0" stroke-linecap="round" stroke-linejoin="round" d="M33.4,18.473
		c0-0.199-0.1-0.397-0.2-0.596c-0.1-0.397-0.3-0.894-0.3-1.39c-0.1-0.397-0.1-0.794-0.1-1.191c0-0.497,0.1-0.993,0.2-1.49
		c0.1-0.298,0.3-0.695,0.4-0.993"/>
	<path fill="none" stroke="#A65C45" stroke-width="0" stroke-linecap="round" stroke-linejoin="round" d="M14.9,12.812
		c-0.9,1.688-0.9,3.674,0,5.661h18.5"/>
	<polyline fill="none" stroke="#A65C45" stroke-width="0" stroke-linecap="round" stroke-linejoin="round" points="33.4,12.812 
		43.2,10.131 24.7,10.131 14.9,12.812 	"/>
	
		<line fill="none" stroke="#A65C45" stroke-width="0" stroke-linecap="round" stroke-linejoin="round" x1="33.4" y1="18.473" x2="43.2" y2="15.99"/>
	
		<line fill="none" stroke="#A65C45" stroke-width="0" stroke-linecap="round" stroke-linejoin="round" x1="33.4" y1="12.812" x2="14.9" y2="12.812"/>
	<path fill="none" stroke="#D1C6A8" stroke-width="0" stroke-linecap="round" stroke-linejoin="round" d="M43.2,15.99
		c-0.2-0.298-0.2-0.497-0.4-0.695"/>
	<path fill="none" stroke="#D1C6A8" stroke-width="0" stroke-linecap="round" stroke-linejoin="round" d="M42.2,12.812
		c0.1-0.397,0.2-0.894,0.3-1.291"/>
	
		<line fill="none" stroke="#D1C6A8" stroke-width="0" stroke-linecap="round" stroke-linejoin="round" x1="42.2" y1="12.812" x2="32.8" y2="15.295"/>
	<path fill="none" stroke="#D1C6A8" stroke-width="0" stroke-linecap="round" stroke-linejoin="round" d="M42.8,15.295
		c-0.3-0.298-0.4-0.794-0.5-1.191"/>
	
		<line fill="none" stroke="#D1C6A8" stroke-width="0" stroke-linecap="round" stroke-linejoin="round" x1="42.8" y1="15.295" x2="33.2" y2="17.876"/>
	<path fill="none" stroke="#D1C6A8" stroke-width="0" stroke-linecap="round" stroke-linejoin="round" d="M43.2,10.131
		c-0.2,0.497-0.5,0.894-0.7,1.39"/>
	
		<line fill="none" stroke="#D1C6A8" stroke-width="0" stroke-linecap="round" stroke-linejoin="round" x1="42.3" y1="14.104" x2="32.9" y2="16.486"/>
	<path fill="none" stroke="#D1C6A8" stroke-width="0" stroke-linecap="round" stroke-linejoin="round" d="M42.3,14.104
		c-0.1-0.398-0.2-0.795-0.1-1.292"/>
	
		<line fill="none" stroke="#D1C6A8" stroke-width="0" stroke-linecap="round" stroke-linejoin="round" x1="42.5" y1="11.521" x2="33" y2="13.805"/>
	<path fill="none" stroke="#C26A39" stroke-linecap="round" stroke-linejoin="round" d="M118.8,5.861v17.577
		c0,3.575-1.6,5.362-4.7,5.362H11.7c-3.2,0-4.7-1.787-4.7-5.362V5.861c0-3.674,1.5-5.461,4.7-5.461h102.4
		C117.2,0.399,118.8,2.187,118.8,5.861"/>
</g>
</svg>
