<?xml version="1.0" encoding="utf-8"?>
<!-- Generator: Adobe Illustrator 14.0.0, SVG Export Plug-In . SVG Version: 6.00 Build 43363)  -->
<!DOCTYPE svg PUBLIC "-//W3C//DTD SVG 1.1//EN" "http://www.w3.org/Graphics/SVG/1.1/DTD/svg11.dtd">
<svg version="1.1" id="Layer_1" xmlns="http://www.w3.org/2000/svg" xmlns:xlink="http://www.w3.org/1999/xlink" x="0px" y="0px"
	 width="125px" height="29px" viewBox="0 0 125 29" enable-background="new 0 0 125 29" xml:space="preserve">
<g>
	<path fill="#F1F1F1" d="M124.65,23.054V5.675c0-3.633-1.595-5.4-4.686-5.4H5.388c-3.191,0-4.687,1.768-4.687,5.4v17.378
		c0,3.535,1.496,5.303,4.687,5.303h114.577C123.056,28.356,124.65,26.589,124.65,23.054z"/>
	<path fill="#DFDFDF" d="M21.742,9.848h0.399l-0.399-0.589V9.848z"/>
	<path fill="#DFDFDF" d="M19.049,9.848L19.049,9.848L19.049,9.848L19.049,9.848z"/>
	<path fill="#DFDFDF" d="M13.564,14.168v-0.687h-0.997L13.564,14.168z"/>
	<path fill="#DFDFDF" d="M10.873,13.481v0.491l0.199-0.491H10.873z"/>
	
		<line fill="none" stroke="#E8A68E" stroke-width="0.2" stroke-linecap="round" stroke-linejoin="round" x1="16.257" y1="9.848" x2="13.564" y2="9.848"/>
	<polyline fill="none" stroke="#E8A68E" stroke-width="0.2" stroke-linecap="round" stroke-linejoin="round" points="21.742,9.848 
		21.742,9.259 21.742,7.982 	"/>
	<polyline fill="none" stroke="#E8A68E" stroke-width="0.2" stroke-linecap="round" stroke-linejoin="round" points="24.534,9.848 
		22.141,9.848 21.742,9.848 	"/>
	
		<line fill="none" stroke="#FDE6DC" stroke-width="0.1" stroke-linecap="round" stroke-linejoin="round" x1="24.534" y1="9.848" x2="24.833" y2="9.848"/>
	<polyline fill="none" stroke="#E8A68E" stroke-width="0.2" stroke-linecap="round" stroke-linejoin="round" points="24.534,13.481 
		24.534,12.499 24.534,9.848 	"/>
	
		<line fill="none" stroke="#E8A68E" stroke-width="0.2" stroke-linecap="round" stroke-linejoin="round" x1="21.742" y1="13.481" x2="19.049" y2="13.481"/>
	
		<line fill="none" stroke="#E8A68E" stroke-width="0.2" stroke-linecap="round" stroke-linejoin="round" x1="24.534" y1="7.982" x2="24.534" y2="9.848"/>
	
		<line fill="none" stroke="#FDE6DC" stroke-width="0.1" stroke-linecap="round" stroke-linejoin="round" x1="24.833" y1="13.481" x2="24.534" y2="13.481"/>
	
		<line fill="none" stroke="#E8A68E" stroke-width="0.1" stroke-linecap="round" stroke-linejoin="round" x1="24.534" y1="17.113" x2="24.534" y2="20.55"/>
	
		<line fill="none" stroke="#E8A68E" stroke-width="0.2" stroke-linecap="round" stroke-linejoin="round" x1="21.742" y1="17.113" x2="24.534" y2="17.113"/>
	
		<line fill="none" stroke="#E8A68E" stroke-width="0.2" stroke-linecap="round" stroke-linejoin="round" x1="21.742" y1="20.55" x2="21.742" y2="17.113"/>
	
		<line fill="none" stroke="#E8A68E" stroke-width="0.2" stroke-linecap="round" stroke-linejoin="round" x1="21.742" y1="13.481" x2="24.534" y2="13.481"/>
	
		<line fill="none" stroke="#E8A68E" stroke-width="0.2" stroke-linecap="round" stroke-linejoin="round" x1="21.742" y1="17.113" x2="21.742" y2="13.481"/>
	
		<line fill="none" stroke="#FDE6DC" stroke-width="0.1" stroke-linecap="round" stroke-linejoin="round" x1="24.833" y1="17.113" x2="24.534" y2="17.113"/>
	
		<line fill="none" stroke="#E8A68E" stroke-width="0.1" stroke-linecap="round" stroke-linejoin="round" x1="24.534" y1="17.113" x2="24.534" y2="13.481"/>
	<line fill="none" stroke="#EE987E" stroke-width="0.3" x1="21.742" y1="13.481" x2="21.742" y2="9.848"/>
	
		<line fill="none" stroke="#E8A68E" stroke-width="0.2" stroke-linecap="round" stroke-linejoin="round" x1="13.564" y1="7.982" x2="13.564" y2="9.848"/>
	
		<line fill="none" stroke="#E8A68E" stroke-width="0.2" stroke-linecap="round" stroke-linejoin="round" x1="13.564" y1="9.848" x2="10.873" y2="9.848"/>
	
		<line fill="none" stroke="#E8A68E" stroke-width="0.2" stroke-linecap="round" stroke-linejoin="round" x1="10.873" y1="9.848" x2="10.873" y2="7.982"/>
	
		<line fill="none" stroke="#E8A68E" stroke-width="0.2" stroke-linecap="round" stroke-linejoin="round" x1="19.049" y1="7.982" x2="19.049" y2="9.848"/>
	
		<line fill="none" stroke="#E8A68E" stroke-width="0.2" stroke-linecap="round" stroke-linejoin="round" x1="16.257" y1="9.848" x2="16.257" y2="7.982"/>
	
		<line fill="none" stroke="#E8A68E" stroke-width="0.2" stroke-linecap="round" stroke-linejoin="round" x1="19.049" y1="9.848" x2="16.257" y2="9.848"/>
	<polyline fill="none" stroke="#E8A68E" stroke-width="0.2" stroke-linecap="round" stroke-linejoin="round" points="19.049,13.481 
		19.049,9.848 19.049,9.848 	"/>
	<polyline fill="none" stroke="#E8A68E" stroke-width="0.2" stroke-linecap="round" stroke-linejoin="round" points="19.049,9.848 
		19.049,9.848 21.742,9.848 	"/>
	
		<line fill="none" stroke="#E8A68E" stroke-width="0.2" stroke-linecap="round" stroke-linejoin="round" x1="19.049" y1="17.113" x2="21.742" y2="17.113"/>
	
		<line fill="none" stroke="#E8A68E" stroke-width="0.2" stroke-linecap="round" stroke-linejoin="round" x1="16.257" y1="13.481" x2="16.257" y2="9.848"/>
	<polyline fill="none" stroke="#E8A68E" stroke-width="0.2" stroke-linecap="round" stroke-linejoin="round" points="8.38,17.113 
		9.676,17.113 10.873,17.113 	"/>
	<polyline fill="none" stroke="#E8A68E" stroke-width="0.2" stroke-linecap="round" stroke-linejoin="round" points="16.257,13.481 
		18.052,13.481 19.049,13.481 	"/>
	<polyline fill="none" stroke="#E8A68E" stroke-width="0.2" stroke-linecap="round" stroke-linejoin="round" points="16.257,17.113 
		16.257,16.426 16.257,13.481 	"/>
	
		<line fill="none" stroke="#E8A68E" stroke-width="0.2" stroke-linecap="round" stroke-linejoin="round" x1="19.049" y1="17.113" x2="16.257" y2="17.113"/>
	
		<line fill="none" stroke="#E8A68E" stroke-width="0.2" stroke-linecap="round" stroke-linejoin="round" x1="19.049" y1="13.481" x2="19.049" y2="17.113"/>
	<polyline fill="none" stroke="#E8A68E" stroke-width="0.2" stroke-linecap="round" stroke-linejoin="round" points="13.564,17.113 
		13.564,14.168 13.564,13.481 	"/>
	<polyline fill="none" stroke="#E8A68E" stroke-width="0.2" stroke-linecap="round" stroke-linejoin="round" points="10.873,13.481 
		10.873,13.972 10.873,17.113 	"/>
	<polyline fill="none" stroke="#E8A68E" stroke-width="0.2" stroke-linecap="round" stroke-linejoin="round" points="10.873,13.481 
		11.072,13.481 12.567,13.481 13.564,13.481 	"/>
	
		<line fill="none" stroke="#E8A68E" stroke-width="0.2" stroke-linecap="round" stroke-linejoin="round" x1="13.564" y1="17.113" x2="10.873" y2="17.113"/>
	
		<line fill="none" stroke="#E8A68E" stroke-width="0.2" stroke-linecap="round" stroke-linejoin="round" x1="13.564" y1="13.481" x2="16.257" y2="13.481"/>
	
		<line fill="none" stroke="#E8A68E" stroke-width="0.2" stroke-linecap="round" stroke-linejoin="round" x1="13.564" y1="17.113" x2="13.564" y2="20.943"/>
	
		<line fill="none" stroke="#E8A68E" stroke-width="0.2" stroke-linecap="round" stroke-linejoin="round" x1="10.873" y1="20.943" x2="10.873" y2="17.113"/>
	
		<line fill="none" stroke="#E8A68E" stroke-width="0.2" stroke-linecap="round" stroke-linejoin="round" x1="19.049" y1="20.55" x2="19.049" y2="17.113"/>
	
		<line fill="none" stroke="#E8A68E" stroke-width="0.2" stroke-linecap="round" stroke-linejoin="round" x1="13.564" y1="17.113" x2="16.257" y2="17.113"/>
	
		<line fill="none" stroke="#E8A68E" stroke-width="0.2" stroke-linecap="round" stroke-linejoin="round" x1="16.257" y1="17.113" x2="16.257" y2="20.943"/>
	
		<line fill="none" stroke="#E8A68E" stroke-width="0.2" stroke-linecap="round" stroke-linejoin="round" x1="10.873" y1="9.848" x2="8.38" y2="9.848"/>
	
		<line fill="none" stroke="#E8A68E" stroke-width="0.2" stroke-linecap="round" stroke-linejoin="round" x1="8.38" y1="13.481" x2="10.873" y2="13.481"/>
	
		<line fill="none" stroke="#E8A68E" stroke-width="0.2" stroke-linecap="round" stroke-linejoin="round" x1="13.564" y1="9.848" x2="13.564" y2="13.481"/>
	
		<line fill="none" stroke="#E8A68E" stroke-width="0.2" stroke-linecap="round" stroke-linejoin="round" x1="10.873" y1="13.481" x2="10.873" y2="9.848"/>
	<polyline fill="none" stroke="#E28869" stroke-width="0.5" stroke-linecap="round" stroke-linejoin="round" points="24.534,12.499 
		22.141,9.848 21.742,9.259 19.847,6.902 19.049,9.848 19.049,9.848 18.052,13.481 17.055,16.917 16.257,16.426 13.564,14.168 
		12.567,13.481 11.471,12.499 11.072,13.481 10.873,13.972 9.676,17.113 8.38,20.943 	"/>
	<polyline fill="none" stroke="#A15E47" stroke-width="0.6" stroke-linecap="round" stroke-linejoin="round" points="24.534,20.943 
		16.257,20.943 13.564,20.943 10.873,20.943 8.38,20.943 8.38,17.113 8.38,13.481 8.38,9.848 8.38,7.688 	"/>
	<path fill="none" stroke="#C26A39" stroke-linecap="round" stroke-linejoin="round" d="M124.65,23.299
		c0,3.535-1.595,5.303-4.686,5.303H5.388c-3.191,0-4.687-1.768-4.687-5.303V5.92c0-3.632,1.496-5.4,4.687-5.4h114.577
		c3.091,0,4.686,1.768,4.686,5.4V23.299"/>
</g>
</svg>
