<?xml version="1.0" encoding="utf-8"?>
<!-- Generator: Adobe Illustrator 14.0.0, SVG Export Plug-In . SVG Version: 6.00 Build 43363)  -->
<!DOCTYPE svg PUBLIC "-//W3C//DTD SVG 1.1//EN" "http://www.w3.org/Graphics/SVG/1.1/DTD/svg11.dtd">
<svg version="1.1" id="Layer_1" xmlns="http://www.w3.org/2000/svg" xmlns:xlink="http://www.w3.org/1999/xlink" x="0px" y="0px"
	 width="896px" height="617px" viewBox="0 0 896 617" enable-background="new 0 0 896 617" xml:space="preserve">
<g>
	<path fill="#FFFFFF" d="M72.3,4.2H7v420.9h65.3V4.2z M65.9,51.4h5.6H65.9z M64.8,36.6h6.7H64.8z M65.9,41.5h5.6H65.9z M65.9,46.4
		h5.6H65.9z M65.9,31.7h5.6H65.9z M65.9,26.9h5.6H65.9z M65.9,22h5.6H65.9z M65.9,16h5.6H65.9z M26.6,13.7c0.2-0.2,0.3-0.5,0.3-0.7
		c0-0.4-0.2-0.7-0.5-0.8c-0.2-0.3-0.6-0.5-1.1-0.5s-0.9,0.1-1.2,0.4c-0.2,0.2-0.3,0.6-0.3,0.9c0,0.5,0.2,0.8,0.6,1.2l-0.2,1.2
		L20,14.6v-4.1h1.4v3l1.4,0.2c-0.1-0.4-0.2-0.7-0.2-1c0-0.7,0.3-1.3,0.7-1.7c0.5-0.5,1.1-0.8,2-0.8c0.6,0,1.2,0.2,1.7,0.6
		c0.7,0.5,1.1,1.2,1.1,2.2c0,0.7-0.2,1.3-0.7,1.7c-0.3,0.5-0.8,0.8-1.5,0.9L25.7,14C26.1,14,26.4,13.9,26.6,13.7z M27.9,17.9v1.6
		h-5.7c0.5,0.5,0.9,1.2,1.1,2h-1.4c-0.1-0.5-0.3-0.9-0.7-1.3c-0.4-0.5-0.8-0.9-1.3-1v-1.3H27.9z M14.3,26.5H7.9H14.3z M14.3,23.8
		H7.9H14.3z M14.3,21.3H7.9H14.3z M14.3,18.7H7.9H14.3z M16.8,16.2H7.9H16.8z M24.9,37.2v-0.9h1.4v0.9h1.6v1.5h-1.6V42H25l-5.1-3.5
		v-1.3H24.9z M14.3,34.2H7.9H14.3z M14.3,31.7H7.9H14.3z M14.3,36.8H7.9H14.3z M14.3,49.7H7.9H14.3z M14.3,39.4H7.9H14.3z
		 M14.3,44.5H7.9H14.3z M14.3,47.1H7.9H14.3z M21.2,46.3c-0.4-0.5-0.8-0.8-1.3-1V44h8v1.6h-5.7c0.5,0.6,0.9,1.2,1.1,2h-1.4
		C21.8,47.2,21.6,46.7,21.2,46.3z M16.8,42H7.9H16.8z M15.4,29H7.9H15.4z M26.4,63.7c-0.2-0.2-0.5-0.2-1-0.2c-0.3,0-0.6,0-0.8,0.2
		c-0.3,0.3-0.4,0.5-0.4,0.8c0,0.2,0.1,0.5,0.1,0.7L23.1,65c0-0.3-0.1-0.7-0.3-0.9c-0.1-0.3-0.4-0.4-0.8-0.4c-0.2,0-0.4,0.1-0.6,0.3
		c-0.1,0.2-0.2,0.4-0.2,0.7c0,0.2,0.1,0.5,0.2,0.6c0.2,0.2,0.5,0.3,0.8,0.4L21.9,67c-0.4,0-0.7-0.2-1.1-0.3
		c-0.2-0.2-0.5-0.5-0.6-0.9c-0.2-0.3-0.3-0.8-0.3-1.2c0-0.8,0.3-1.4,0.7-1.8c0.4-0.3,0.8-0.6,1.3-0.6c0.8,0,1.3,0.5,1.7,1.2
		c0.2-0.4,0.3-0.9,0.7-1.1c0.3-0.3,0.8-0.4,1.2-0.4c0.8,0,1.4,0.3,1.8,0.8c0.5,0.5,0.8,1.1,0.8,1.8c0,0.8-0.2,1.4-0.7,1.8
		c-0.4,0.5-1,0.8-1.6,0.9l-0.2-1.5c0.4,0,0.7-0.2,0.9-0.4c0.2-0.2,0.3-0.5,0.3-0.7C26.8,64.2,26.7,64,26.4,63.7z M27.9,69.5V71h-5.7
		c0.5,0.5,0.9,1.2,1.1,2h-1.4c-0.1-0.5-0.3-0.9-0.7-1.3c-0.4-0.5-0.8-0.9-1.3-1v-1.2H27.9z M14.3,52.3H7.9H14.3z M14.3,60H7.9H14.3z
		 M14.3,57.5H7.9H14.3z M14.3,62.7H7.9H14.3z M14.3,75.5H7.9H14.3z M14.3,73H7.9H14.3z M14.3,70.3H7.9H14.3z M14.3,65.2H7.9H14.3z
		 M16.8,67.8H7.9H16.8z M15.4,54.8H7.9H15.4z M22.1,87.7c0.3,0,0.7,0.1,1,0.3c0.4,0.1,0.7,0.3,1,0.6c0.3,0.2,0.7,0.6,1.1,1
		c0.4,0.4,0.7,0.7,0.9,0.9c0.1,0.2,0.3,0.2,0.4,0.3v-3.1h1.4v5.5c-0.5-0.1-1-0.3-1.5-0.5c-0.5-0.4-1.1-1-1.9-1.8
		c-0.6-0.7-1.1-1.2-1.3-1.3c-0.3-0.2-0.6-0.3-0.9-0.3c-0.4,0-0.6,0.1-0.9,0.3c-0.1,0.1-0.2,0.4-0.2,0.7c0,0.4,0.1,0.7,0.2,0.8
		c0.3,0.2,0.6,0.3,1,0.4L22.3,93c-0.9-0.1-1.5-0.4-1.9-0.8c-0.3-0.5-0.5-1.2-0.5-1.9c0-0.8,0.2-1.4,0.7-1.8
		C21,88,21.5,87.7,22.1,87.7z M14.3,78.2H7.9H14.3z M14.3,83.3H7.9H14.3z M14.3,88.4H7.9H14.3z M14.3,85.8H7.9H14.3z M14.3,98.8H7.9
		H14.3z M14.3,96.2H7.9H14.3z M14.3,91H7.9H14.3z M19.9,96.5v-1.3h8v1.6h-5.7c0.5,0.5,0.9,1.2,1.1,2h-1.4c-0.1-0.4-0.3-0.8-0.7-1.3
		C20.8,97,20.4,96.7,19.9,96.5z M16.8,93.6H7.9H16.8z M15.4,80.7H7.9H15.4z M65.9,75.8h5.6H65.9z M65.9,56.2h5.6H65.9z M65.9,66h5.6
		H65.9z M65.9,71h5.6H65.9z M65.9,90.5h5.6H65.9z M65.9,95.4h5.6H65.9z M65.9,80.7h5.6H65.9z M65.9,100.2h5.6H65.9z M63.6,61.1h7.9
		H63.6z M64.8,85.7h6.7H64.8z M65.9,124.8h5.6H65.9z M65.9,105.2h5.6H65.9z M65.9,119.9h5.6H65.9z M65.9,115h5.6H65.9z M65.9,139.5
		h5.6H65.9z M65.9,129.7h5.6H65.9z M65.9,144.5h5.6H65.9z M65.9,149.3h5.6H65.9z M63.6,110.2h7.9H63.6z M64.8,134.6h6.7H64.8z
		 M28.1,115.1v1.6h-5.8c0.6,0.5,0.9,1.2,1.1,2h-1.3c-0.2-0.5-0.4-0.9-0.8-1.4c-0.4-0.4-0.8-0.8-1.3-1v-1.2H28.1z M28.1,121.3v1.5
		h-5.8c0.6,0.6,0.9,1.3,1.1,2h-1.3c-0.2-0.3-0.4-0.8-0.8-1.3c-0.4-0.4-0.8-0.8-1.3-0.9v-1.3H28.1z M14.3,111.7H7.9H14.3z M14.3,104
		H7.9H14.3z M14.3,109.1H7.9H14.3z M14.3,101.3H7.9H14.3z M14.3,116.8H7.9H14.3z M14.3,122H7.9H14.3z M14.3,114.2H7.9H14.3z
		 M14.3,124.7H7.9H14.3z M16.8,119.5H7.9H16.8z M15.4,106.5H7.9H15.4z M14.3,127.2H7.9H14.3z M14.3,129.8H7.9H14.3z M14.3,134.9H7.9
		H14.3z M14.3,137.5H7.9H14.3z M14.3,140.1H7.9H14.3z M14.3,142.7H7.9H14.3z M14.3,150.4H7.9H14.3z M14.3,147.8H7.9H14.3z
		 M20.7,140.5c0.7-0.6,1.7-0.8,3.2-0.8c1.6,0,2.7,0.2,3.4,0.8c0.5,0.4,0.8,1,0.8,1.7c0,0.8-0.3,1.5-0.9,2c-0.6,0.4-1.7,0.6-3.3,0.6
		c-1.5,0-2.5-0.2-3.2-0.7c-0.5-0.4-0.8-1.1-0.8-1.9C19.9,141.5,20.2,140.9,20.7,140.5z M19.9,148.4v-1.2h8v1.5h-5.7
		c0.5,0.5,0.9,1.2,1.1,2h-1.4c-0.1-0.4-0.3-0.9-0.7-1.3C20.8,149,20.4,148.6,19.9,148.4z M16.8,145.2H7.9H16.8z M15.4,132.3H7.9
		H15.4z M27.1,169.4c0.7,0.5,1,1.2,1,2c0,0.7-0.2,1.3-0.5,1.6c-0.3,0.4-0.8,0.7-1.5,0.8l-0.2-1.5c0.3-0.1,0.5-0.1,0.7-0.3
		c0.2-0.2,0.2-0.3,0.2-0.6c0-0.4-0.2-0.6-0.4-0.8c-0.3-0.3-0.9-0.4-1.8-0.5c0.5,0.4,0.7,0.9,0.7,1.5c0,0.7-0.3,1.2-0.8,1.7
		c-0.4,0.4-1.1,0.6-1.9,0.6c-0.8,0-1.5-0.2-2-0.7c-0.4-0.5-0.7-1.1-0.7-1.9c0-0.8,0.3-1.5,1-2c0.6-0.5,1.6-0.8,3-0.8
		C25.4,168.5,26.4,168.8,27.1,169.4z M14.3,153H7.9H14.3z M14.3,155.5H7.9H14.3z M14.3,160.7H7.9H14.3z M14.3,165.9H7.9H14.3z
		 M14.3,168.5H7.9H14.3z M14.3,163.3H7.9H14.3z M14.3,173.7H7.9H14.3z M16.8,171H7.9H16.8z M15.4,158.2H7.9H15.4z M14.3,176.2H7.9
		H14.3z M14.3,178.8H7.9H14.3z M14.3,181.4H7.9H14.3z M14.3,186.5H7.9H14.3z M14.3,194.3H7.9H14.3z M14.3,189.2H7.9H14.3z
		 M14.3,191.7H7.9H14.3z M14.3,199.4H7.9H14.3z M23.6,195.8c0.2-0.5,0.5-0.8,0.8-1c0.4-0.3,0.7-0.4,1.2-0.4c0.7,0,1.3,0.3,1.8,0.7
		c0.4,0.4,0.7,1.1,0.7,1.9c0,0.8-0.2,1.3-0.6,1.8s-1.1,0.9-1.9,0.9c-0.4,0-0.8-0.2-1.2-0.4c-0.3-0.2-0.5-0.5-0.8-1
		c-0.2,0.4-0.4,0.7-0.7,0.9c-0.2,0.1-0.6,0.2-1,0.2c-0.5,0-1-0.1-1.4-0.6c-0.4-0.4-0.6-1-0.6-1.8c0-0.7,0.2-1.2,0.6-1.7
		c0.4-0.4,0.9-0.6,1.4-0.6s0.8,0.1,1,0.2C23.2,195.2,23.4,195.4,23.6,195.8z M16.8,196.8H7.9H16.8z M15.4,184H7.9H15.4z M65.9,173.8
		h5.6H65.9z M65.9,154.2h5.6H65.9z M65.9,168.8h5.6H65.9z M65.9,164h5.6H65.9z M65.9,193.3h5.6H65.9z M65.9,188.4h5.6H65.9z
		 M65.9,178.7h5.6H65.9z M65.9,198.3h5.6H65.9z M63.6,159.1h7.9H63.6z M64.8,183.5h6.7H64.8z M65.9,212.9h5.6H65.9z M65.9,203.2h5.6
		H65.9z M65.9,217.8h5.6H65.9z M65.9,222.8h5.6H65.9z M65.9,237.4h5.6H65.9z M65.9,242.3h5.6H65.9z M65.9,227.7h5.6H65.9z
		 M65.9,247.3h5.6H65.9z M64.8,232.5h6.7H64.8z M63.6,208h7.9H63.6z M27.9,223.3v1.5c-1.1-0.1-2.2-0.3-3.3-0.8
		c-1.2-0.4-2.2-1-3.2-1.7v3.5H20v-5.2h1.2c0.4,0.4,1,0.8,1.8,1.3c0.8,0.4,1.6,0.8,2.5,1C26.4,223.2,27.2,223.3,27.9,223.3z
		 M14.3,212.4H7.9H14.3z M14.3,202H7.9H14.3z M14.3,207.3H7.9H14.3z M14.3,204.7H7.9H14.3z M14.3,217.5H7.9H14.3z M14.3,220.1H7.9
		H14.3z M14.3,215H7.9H14.3z M16.8,222.7H7.9H16.8z M15.4,209.8H7.9H15.4z M14.3,225.3H7.9H14.3z M14.3,230.4H7.9H14.3z M14.3,227.8
		H7.9H14.3z M14.3,233H7.9H14.3z M14.3,238.2H7.9H14.3z M14.3,246H7.9H14.3z M14.3,240.8H7.9H14.3z M14.3,243.3H7.9H14.3z
		 M20.4,247.1c0.4-0.4,0.9-0.7,1.5-0.8l0.2,1.5c-0.3,0.1-0.6,0.1-0.7,0.3c-0.2,0.2-0.2,0.3-0.2,0.6c0,0.3,0.1,0.6,0.4,0.8
		c0.3,0.3,0.8,0.4,1.8,0.5c-0.5-0.5-0.7-0.9-0.7-1.5s0.2-1.2,0.7-1.7c0.5-0.4,1.2-0.6,2-0.6c0.8,0,1.5,0.2,1.9,0.7
		c0.5,0.5,0.8,1.1,0.8,1.9c0,0.8-0.3,1.5-1,2c-0.6,0.5-1.7,0.7-3.1,0.7s-2.5-0.2-3.1-0.8c-0.7-0.5-1-1.2-1-2
		C19.9,248,20.1,247.5,20.4,247.1z M16.8,248.5H7.9H16.8z M15.4,235.7H7.9H15.4z M26.4,274c-0.2-0.2-0.6-0.3-1.1-0.3
		s-0.9,0.1-1.2,0.3c-0.2,0.3-0.3,0.5-0.3,0.9c0,0.4,0.2,0.9,0.6,1.2l-0.2,1.2l-4.2-0.8v-4h1.4v2.8l1.4,0.4c-0.1-0.4-0.2-0.8-0.2-1.1
		c0-0.7,0.3-1.3,0.7-1.8c0.5-0.5,1.1-0.7,2-0.7c0.6,0,1.2,0.2,1.7,0.6c0.7,0.6,1.1,1.2,1.1,2.1c0,0.8-0.2,1.4-0.7,1.9
		c-0.3,0.4-0.8,0.7-1.5,0.8l-0.2-1.6c0.4,0,0.7-0.1,0.9-0.3c0.2-0.2,0.3-0.4,0.3-0.8C26.9,274.5,26.7,274.3,26.4,274z M14.3,258.9
		H7.9H14.3z M14.3,251.2H7.9H14.3z M14.3,253.7H7.9H14.3z M14.3,256.3H7.9H14.3z M14.3,264H7.9H14.3z M14.3,269.2H7.9H14.3z
		 M14.3,266.7H7.9H14.3z M14.3,271.8H7.9H14.3z M16.8,274.3H7.9H16.8z M15.4,261.5H7.9H15.4z M14.3,276.9H7.9H14.3z M14.3,279.5H7.9
		H14.3z M14.3,282.1H7.9H14.3z M14.3,284.7H7.9H14.3z M14.3,297.6H7.9H14.3z M14.3,295H7.9H14.3z M14.3,292.5H7.9H14.3z M14.3,289.9
		H7.9H14.3z M15.4,287.3H7.9H15.4z M24.9,298.8h1.4v1h1.6v1.5h-1.6v3.3H25l-5.1-3.5v-1.3h5V298.8z M65.9,252.1h5.6H65.9z
		 M65.9,266.8h5.6H65.9z M65.9,261.9h5.6H65.9z M65.9,271.7h5.6H65.9z M65.9,276.6h5.6H65.9z M65.9,286.4h5.6H65.9z M65.9,291.3h5.6
		H65.9z M65.9,296.3h5.6H65.9z M64.8,281.5h6.7H64.8z M63.6,257h7.9H63.6z M65.9,301.1h5.6H65.9z M65.9,310.9h5.6H65.9z M65.9,320.6
		h5.6H65.9z M65.9,315.8h5.6H65.9z M65.9,340.3h5.6H65.9z M65.9,335.3h5.6H65.9z M65.9,325.6h5.6H65.9z M65.9,345.2h5.6H65.9z
		 M64.8,330.6h6.7H64.8z M63.6,306h7.9H63.6z M14.3,310.5H7.9H14.3z M14.3,307.9H7.9H14.3z M14.3,305.3H7.9H14.3z M14.3,302.8H7.9
		H14.3z M14.3,323.4H7.9H14.3z M14.3,320.8H7.9H14.3z M14.3,318.3H7.9H14.3z M14.3,315.7H7.9H14.3z M16.8,300.2H7.9H16.8z
		 M15.4,313.1H7.9H15.4z M23.6,325.2c0.2-0.4,0.3-0.8,0.7-1.1c0.3-0.3,0.8-0.3,1.2-0.3c0.8,0,1.4,0.2,1.8,0.7
		c0.5,0.5,0.8,1.1,0.8,1.9c0,0.7-0.2,1.4-0.7,1.8c-0.4,0.4-1,0.7-1.6,0.9l-0.2-1.5c0.4-0.1,0.7-0.3,0.9-0.4c0.2-0.3,0.3-0.5,0.3-0.8
		c0-0.3-0.1-0.6-0.4-0.8c-0.2-0.3-0.5-0.3-1-0.3c-0.3,0-0.6,0-0.8,0.3c-0.3,0.2-0.4,0.5-0.4,0.7c0,0.3,0.1,0.5,0.1,0.8l-1.2-0.2
		c0-0.4-0.1-0.8-0.3-1c-0.1-0.2-0.4-0.3-0.8-0.3c-0.2,0-0.4,0.1-0.6,0.3c-0.1,0.2-0.2,0.4-0.2,0.6c0,0.3,0.1,0.5,0.2,0.7
		c0.2,0.1,0.5,0.2,0.8,0.3l-0.3,1.4c-0.4-0.1-0.7-0.3-1.1-0.4c-0.2-0.2-0.5-0.5-0.6-0.9c-0.2-0.3-0.3-0.7-0.3-1.2
		c0-0.7,0.3-1.4,0.7-1.8c0.4-0.3,0.8-0.6,1.3-0.6C22.7,324,23.2,324.4,23.6,325.2z M14.3,333.8H7.9H14.3z M14.3,328.6H7.9H14.3z
		 M14.3,331.2H7.9H14.3z M14.3,346.7H7.9H14.3z M14.3,336.3H7.9H14.3z M14.3,344.1H7.9H14.3z M14.3,341.6H7.9H14.3z M16.8,326H7.9
		H16.8z M15.4,338.9H7.9H15.4z M26.5,349.8h1.4v5.3c-0.5,0-1-0.2-1.5-0.5s-1.1-0.8-1.9-1.7c-0.6-0.7-1.1-1.1-1.3-1.3
		c-0.3-0.2-0.6-0.3-0.9-0.3c-0.4,0-0.6,0.1-0.9,0.3c-0.1,0.2-0.2,0.5-0.2,0.8c0,0.3,0.1,0.5,0.2,0.7c0.3,0.2,0.6,0.3,1,0.3l-0.1,1.6
		c-0.9-0.1-1.5-0.4-1.9-0.9c-0.3-0.5-0.5-1-0.5-1.8c0-0.7,0.2-1.4,0.7-1.8c0.4-0.4,0.9-0.7,1.5-0.7c0.3,0,0.7,0,1,0.1
		c0.4,0.2,0.7,0.4,1,0.7c0.3,0.2,0.7,0.5,1.1,1c0.4,0.5,0.7,0.8,0.9,0.9c0.1,0.1,0.3,0.3,0.4,0.3V349.8z M14.3,359.6H7.9H14.3z
		 M14.3,354.4H7.9H14.3z M14.3,357H7.9H14.3z M14.3,349.3H7.9H14.3z M14.3,372.5H7.9H14.3z M14.3,369.9H7.9H14.3z M14.3,362.1H7.9
		H14.3z M14.3,367.3H7.9H14.3z M16.8,351.8H7.9H16.8z M15.4,364.7H7.9H15.4z M22.2,378.5c0.5,0.5,0.9,1.2,1.1,2h-1.4
		c-0.1-0.4-0.3-0.9-0.7-1.4c-0.4-0.4-0.8-0.8-1.3-0.9V377h8v1.5H22.2z M14.3,375.1H7.9H14.3z M14.3,380.2H7.9H14.3z M14.3,382.8H7.9
		H14.3z M14.3,385.4H7.9H14.3z M14.3,395.7H7.9H14.3z M14.3,393.2H7.9H14.3z M14.3,388H7.9H14.3z M16.8,377.7H7.9H16.8z M15.4,390.6
		H7.9H15.4z M65.9,359.8h5.6H65.9z M65.9,369.7h5.6H65.9z M65.9,350.1h5.6H65.9z M65.9,364.7h5.6H65.9z M65.9,374.5h5.6H65.9z
		 M65.9,394.2h5.6H65.9z M65.9,389.2h5.6H65.9z M65.9,384.5h5.6H65.9z M64.8,379.5h6.7H64.8z M63.6,354.9h7.9H63.6z M63.6,404h7.9
		H63.6z M65.9,399.1h5.6H65.9z M28.1,403.5c0,0.8-0.3,1.5-0.9,2c-0.6,0.4-1.7,0.7-3.3,0.7c-1.5,0-2.5-0.3-3.2-0.9
		c-0.5-0.4-0.8-1-0.8-1.8c0-0.7,0.3-1.3,0.8-1.8c0.7-0.5,1.7-0.7,3.2-0.7c1.6,0,2.7,0.2,3.4,0.7C27.8,402.2,28.1,402.8,28.1,403.5z
		 M35.8,414.6c0-1.2,0.3-2.1,1.1-2.9c0.9-0.9,1.9-1.3,3-1.3c1.1,0,2.1,0.4,2.9,1.3c0.8,0.8,1.2,1.7,1.2,2.9s-0.4,2.2-1.2,3
		c-0.8,0.7-1.8,1.2-2.9,1.2c-1.1,0-2.1-0.5-3-1.2C36.1,416.8,35.8,415.8,35.8,414.6z M42,418.9c-0.3,0.1-0.5,0.2-0.9,0.2
		C41.5,419.1,41.7,419,42,418.9z M14.3,400.9H7.9H14.3z M14.3,398.3H7.9H14.3z M16.8,403.5H7.9H16.8z"/>
	<path d="M26.9,13c0,0.2-0.1,0.5-0.3,0.7c-0.2,0.2-0.5,0.3-0.9,0.3l0.2,1.6c0.7-0.1,1.2-0.4,1.5-0.9c0.5-0.4,0.7-1,0.7-1.7
		c0-1-0.4-1.7-1.1-2.2c-0.5-0.4-1.1-0.6-1.7-0.6c-0.9,0-1.5,0.3-2,0.8c-0.4,0.4-0.7,1-0.7,1.7c0,0.3,0.1,0.6,0.2,1l-1.4-0.2v-3H20
		v4.1l4.2,0.8l0.2-1.2c-0.4-0.4-0.6-0.7-0.6-1.2c0-0.3,0.1-0.7,0.3-0.9c0.3-0.3,0.7-0.4,1.2-0.4s0.9,0.2,1.1,0.5
		C26.7,12.3,26.9,12.6,26.9,13z"/>
	<path d="M27.9,19.5v-1.6h-8v1.3c0.5,0.1,0.9,0.5,1.3,1c0.4,0.4,0.6,0.8,0.7,1.3h1.4c-0.2-0.8-0.6-1.5-1.1-2H27.9z"/>
	<path d="M24.9,36.3v0.9h-5v1.3L25,42h1.3v-3.3h1.6v-1.5h-1.6v-0.9H24.9z M22.3,38.7h2.6v1.9L22.3,38.7z"/>
	<path fill="#FFFFFF" d="M24.9,38.7h-2.6l2.6,1.9V38.7z"/>
	<path d="M19.9,45.3c0.5,0.2,0.9,0.5,1.3,1c0.4,0.4,0.6,0.9,0.7,1.3h1.4c-0.2-0.8-0.6-1.4-1.1-2h5.7V44h-8V45.3z"/>
	<path d="M25.4,63.5c0.5,0,0.8,0,1,0.2c0.3,0.3,0.4,0.5,0.4,0.9c0,0.2-0.1,0.5-0.3,0.7c-0.2,0.2-0.5,0.4-0.9,0.4l0.2,1.5
		c0.6-0.1,1.2-0.4,1.6-0.9c0.5-0.4,0.7-1,0.7-1.8c0-0.7-0.3-1.3-0.8-1.8c-0.4-0.5-1-0.8-1.8-0.8c-0.4,0-0.9,0.1-1.2,0.4
		c-0.4,0.2-0.5,0.7-0.7,1.1c-0.4-0.7-0.9-1.2-1.7-1.2c-0.5,0-0.9,0.3-1.3,0.6c-0.4,0.4-0.7,1-0.7,1.8c0,0.4,0.1,0.9,0.3,1.2
		c0.1,0.4,0.4,0.7,0.6,0.9c0.4,0.1,0.7,0.3,1.1,0.3l0.3-1.3c-0.3-0.1-0.6-0.2-0.8-0.4c-0.1-0.1-0.2-0.4-0.2-0.6
		c0-0.3,0.1-0.5,0.2-0.7c0.2-0.2,0.4-0.3,0.6-0.3c0.4,0,0.7,0.1,0.8,0.4c0.2,0.2,0.3,0.6,0.3,0.9l1.2,0.2c0-0.2-0.1-0.5-0.1-0.7
		c0-0.3,0.1-0.5,0.4-0.8C24.8,63.5,25.1,63.5,25.4,63.5z"/>
	<path d="M27.9,71v-1.5h-8v1.2c0.5,0.1,0.9,0.5,1.3,1c0.4,0.4,0.6,0.8,0.7,1.3h1.4c-0.2-0.8-0.6-1.5-1.1-2H27.9z"/>
	<path d="M23.1,88c-0.3-0.2-0.7-0.3-1-0.3c-0.6,0-1.1,0.3-1.5,0.8c-0.5,0.4-0.7,1-0.7,1.8c0,0.7,0.2,1.4,0.5,1.9
		c0.4,0.4,1,0.7,1.9,0.8l0.1-1.5c-0.4-0.1-0.7-0.2-1-0.4c-0.1-0.1-0.2-0.4-0.2-0.8c0-0.3,0.1-0.6,0.2-0.7c0.3-0.2,0.5-0.3,0.9-0.3
		c0.3,0,0.6,0.1,0.9,0.3c0.2,0.1,0.7,0.6,1.3,1.3c0.8,0.8,1.4,1.4,1.9,1.8c0.5,0.2,1,0.4,1.5,0.5v-5.5h-1.4v3.1
		c-0.1-0.1-0.3-0.1-0.4-0.3c-0.2-0.2-0.5-0.5-0.9-0.9c-0.4-0.4-0.8-0.8-1.1-1C23.8,88.3,23.5,88.1,23.1,88z"/>
	<path d="M19.9,95.2v1.3c0.5,0.2,0.9,0.5,1.3,1c0.4,0.5,0.6,0.9,0.7,1.3h1.4c-0.2-0.8-0.6-1.5-1.1-2h5.7v-1.6H19.9z"/>
	<path d="M28.1,116.7v-1.6H20v1.2c0.5,0.2,0.9,0.6,1.3,1c0.4,0.5,0.6,0.9,0.8,1.4h1.3c-0.2-0.8-0.5-1.5-1.1-2H28.1z"/>
	<path d="M28.1,122.8v-1.5H20v1.3c0.5,0.1,0.9,0.5,1.3,0.9c0.4,0.5,0.6,1,0.8,1.3h1.3c-0.2-0.7-0.5-1.4-1.1-2H28.1z"/>
	<path d="M23.9,139.7c-1.5,0-2.5,0.2-3.2,0.8c-0.5,0.4-0.8,1-0.8,1.7c0,0.8,0.3,1.5,0.8,1.9c0.7,0.5,1.7,0.7,3.2,0.7
		c1.6,0,2.7-0.2,3.3-0.6c0.6-0.5,0.9-1.2,0.9-2c0-0.7-0.3-1.3-0.8-1.7C26.6,139.9,25.5,139.7,23.9,139.7z M23.9,143.2
		c-0.8,0-1.5,0-2-0.1c-0.2-0.1-0.5-0.2-0.5-0.3c-0.1-0.1-0.2-0.3-0.2-0.6c0-0.1,0.1-0.3,0.2-0.5c0-0.1,0.3-0.2,0.7-0.2
		c0.3-0.2,1-0.2,1.8-0.2c1,0,1.7,0,2,0.2c0.4,0,0.6,0.1,0.7,0.2c0.2,0.2,0.2,0.4,0.2,0.5c0,0.3,0,0.5-0.2,0.6
		c-0.1,0.1-0.3,0.2-0.7,0.3C25.6,143.2,24.9,143.2,23.9,143.2z"/>
	<path fill="#FFFFFF" d="M21.9,143.1c0.5,0.1,1.2,0.1,2,0.1c1,0,1.7,0,2-0.1c0.4-0.1,0.6-0.2,0.7-0.3c0.2-0.1,0.2-0.3,0.2-0.6
		c0-0.1,0-0.3-0.2-0.5c-0.1-0.1-0.3-0.2-0.7-0.2c-0.3-0.2-1-0.2-2-0.2c-0.8,0-1.5,0-1.8,0.2c-0.4,0-0.7,0.1-0.7,0.2
		c-0.1,0.2-0.2,0.4-0.2,0.5c0,0.3,0.1,0.5,0.2,0.6C21.4,142.9,21.7,143,21.9,143.1z"/>
	<path d="M19.9,147.2v1.2c0.5,0.2,0.9,0.6,1.3,1c0.4,0.4,0.6,0.9,0.7,1.3h1.4c-0.2-0.8-0.6-1.5-1.1-2h5.7v-1.5H19.9z"/>
	<path d="M28.1,171.4c0-0.8-0.3-1.5-1-2c-0.7-0.6-1.7-0.9-3.2-0.9c-1.4,0-2.4,0.3-3,0.8c-0.7,0.5-1,1.2-1,2c0,0.8,0.3,1.4,0.7,1.9
		c0.5,0.5,1.2,0.7,2,0.7c0.8,0,1.5-0.2,1.9-0.6c0.5-0.5,0.8-1,0.8-1.7c0-0.6-0.2-1.1-0.7-1.5c0.9,0.1,1.5,0.2,1.8,0.5
		c0.2,0.2,0.4,0.4,0.4,0.8c0,0.3,0,0.4-0.2,0.6c-0.2,0.2-0.4,0.2-0.7,0.3l0.2,1.5c0.7-0.1,1.2-0.4,1.5-0.8
		C27.9,172.7,28.1,172.1,28.1,171.4z M23.8,170.6c0.2,0.2,0.3,0.4,0.3,0.7c0,0.4-0.1,0.6-0.3,0.8c-0.3,0.2-0.7,0.3-1.2,0.3
		s-0.8-0.1-1.1-0.3c-0.2-0.2-0.3-0.4-0.3-0.7c0-0.3,0.1-0.6,0.4-0.7c0.2-0.3,0.6-0.4,1.1-0.4C23.1,170.3,23.5,170.3,23.8,170.6z"/>
	<path fill="#FFFFFF" d="M24.1,171.3c0-0.3-0.1-0.5-0.3-0.7c-0.3-0.3-0.7-0.3-1.1-0.3c-0.5,0-0.9,0.1-1.1,0.4
		c-0.3,0.1-0.4,0.4-0.4,0.7c0,0.3,0.1,0.5,0.3,0.7c0.3,0.2,0.6,0.3,1.1,0.3s0.9-0.1,1.2-0.3C24,171.9,24.1,171.7,24.1,171.3z"/>
	<path d="M24.4,194.8c-0.3,0.2-0.6,0.5-0.8,1c-0.2-0.4-0.4-0.6-0.7-0.9c-0.2-0.1-0.5-0.2-1-0.2s-1,0.2-1.4,0.6
		c-0.4,0.5-0.6,1-0.6,1.7c0,0.8,0.2,1.4,0.6,1.8c0.4,0.5,0.9,0.6,1.4,0.6c0.4,0,0.8-0.1,1-0.2c0.3-0.2,0.5-0.5,0.7-0.9
		c0.3,0.5,0.5,0.8,0.8,1c0.4,0.2,0.8,0.4,1.2,0.4c0.8,0,1.5-0.4,1.9-0.9s0.6-1,0.6-1.8c0-0.8-0.3-1.5-0.7-1.9
		c-0.5-0.4-1.1-0.7-1.8-0.7C25.1,194.4,24.8,194.5,24.4,194.8z M22.8,196.3c0.1,0.2,0.3,0.5,0.3,0.7c0,0.3-0.2,0.5-0.3,0.8
		c-0.2,0.1-0.4,0.2-0.7,0.2c-0.3,0-0.5-0.1-0.7-0.2c-0.2-0.3-0.3-0.5-0.3-0.8c0-0.2,0.1-0.5,0.3-0.7c0.2-0.1,0.4-0.2,0.7-0.2
		C22.4,196.1,22.6,196.2,22.8,196.3z M24.3,197c0-0.3,0.1-0.6,0.3-0.8c0.3-0.2,0.5-0.3,0.9-0.3s0.8,0.1,1,0.3
		c0.3,0.2,0.4,0.5,0.4,0.8c0,0.3-0.1,0.6-0.4,0.8c-0.2,0.2-0.6,0.4-1,0.4c-0.3,0-0.6-0.2-0.9-0.3C24.4,197.7,24.3,197.4,24.3,197z"
		/>
	<path fill="#FFFFFF" d="M23.1,197c0-0.2-0.2-0.5-0.3-0.7c-0.2-0.1-0.4-0.2-0.7-0.2c-0.3,0-0.5,0.1-0.7,0.2
		c-0.2,0.2-0.3,0.5-0.3,0.7c0,0.3,0.1,0.5,0.3,0.8c0.2,0.1,0.4,0.2,0.7,0.2c0.3,0,0.5-0.1,0.7-0.2C22.9,197.5,23.1,197.3,23.1,197z"
		/>
	<path fill="#FFFFFF" d="M24.6,196.2c-0.2,0.2-0.3,0.5-0.3,0.8c0,0.4,0.1,0.7,0.3,0.9c0.3,0.1,0.6,0.3,0.9,0.3c0.4,0,0.8-0.2,1-0.4
		c0.3-0.2,0.4-0.5,0.4-0.8c0-0.3-0.1-0.6-0.4-0.8c-0.2-0.2-0.6-0.3-1-0.3S24.9,196,24.6,196.2z"/>
	<path d="M27.9,224.8v-1.5c-0.7,0-1.5-0.1-2.4-0.4c-0.9-0.2-1.7-0.6-2.5-1c-0.8-0.5-1.4-0.9-1.8-1.3H20v5.2h1.4v-3.5
		c1,0.7,2,1.3,3.2,1.7C25.7,224.5,26.8,224.7,27.9,224.8z"/>
	<path d="M21.9,246.3c-0.6,0.1-1.1,0.4-1.5,0.8c-0.3,0.4-0.5,0.9-0.5,1.6c0,0.8,0.3,1.5,1,2c0.6,0.6,1.7,0.8,3.1,0.8
		s2.5-0.2,3.1-0.7c0.7-0.5,1-1.2,1-2c0-0.8-0.3-1.4-0.8-1.9c-0.4-0.5-1.1-0.7-1.9-0.7c-0.8,0-1.5,0.2-2,0.6
		c-0.5,0.5-0.7,1.1-0.7,1.7s0.2,1,0.7,1.5c-1-0.1-1.5-0.2-1.8-0.5c-0.3-0.2-0.4-0.5-0.4-0.8c0-0.3,0-0.4,0.2-0.6
		c0.1-0.2,0.4-0.2,0.7-0.3L21.9,246.3z M24.2,249.5c-0.2-0.2-0.3-0.4-0.3-0.7c0-0.4,0.1-0.6,0.3-0.8c0.2-0.2,0.7-0.3,1.2-0.3
		s0.8,0.1,1,0.3c0.3,0.2,0.4,0.4,0.4,0.7c0,0.3-0.2,0.6-0.4,0.7c-0.3,0.3-0.7,0.4-1.1,0.4C24.8,249.8,24.4,249.8,24.2,249.5z"/>
	<path fill="#FFFFFF" d="M23.9,248.8c0,0.3,0.1,0.5,0.3,0.7c0.2,0.3,0.6,0.3,1.1,0.3c0.4,0,0.8-0.1,1.1-0.4c0.2-0.1,0.4-0.4,0.4-0.7
		c0-0.3-0.1-0.5-0.4-0.7c-0.2-0.2-0.5-0.3-1-0.3s-1,0.1-1.2,0.3C24,248.2,23.9,248.4,23.9,248.8z"/>
	<path d="M25.3,273.7c0.5,0,0.9,0.1,1.1,0.3c0.3,0.3,0.5,0.5,0.5,0.8c0,0.4-0.1,0.6-0.3,0.8c-0.2,0.2-0.5,0.3-0.9,0.3l0.2,1.6
		c0.7-0.1,1.2-0.4,1.5-0.8c0.5-0.5,0.7-1.1,0.7-1.9c0-0.9-0.4-1.5-1.1-2.1c-0.5-0.4-1.1-0.6-1.7-0.6c-0.9,0-1.5,0.2-2,0.7
		c-0.4,0.5-0.7,1.1-0.7,1.8c0,0.3,0.1,0.7,0.2,1.1l-1.4-0.4v-2.8H20v4l4.2,0.8l0.2-1.2c-0.4-0.3-0.6-0.8-0.6-1.2
		c0-0.4,0.1-0.6,0.3-0.9C24.4,273.8,24.8,273.7,25.3,273.7z"/>
	<path d="M26.3,298.8h-1.4v1h-5v1.3l5.1,3.5h1.3v-3.3h1.6v-1.5h-1.6V298.8z M24.9,303.2l-2.6-1.9h2.6V303.2z"/>
	<path fill="#FFFFFF" d="M22.3,301.3l2.6,1.9v-1.9H22.3z"/>
	<path d="M24.3,324.1c-0.4,0.3-0.5,0.7-0.7,1.1c-0.4-0.8-0.9-1.2-1.7-1.2c-0.5,0-0.9,0.3-1.3,0.6c-0.4,0.4-0.7,1.1-0.7,1.8
		c0,0.5,0.1,0.9,0.3,1.2c0.1,0.4,0.4,0.7,0.6,0.9c0.4,0.1,0.7,0.3,1.1,0.4l0.3-1.4c-0.3-0.1-0.6-0.2-0.8-0.3
		c-0.1-0.2-0.2-0.4-0.2-0.7c0-0.2,0.1-0.4,0.2-0.6c0.2-0.2,0.4-0.3,0.6-0.3c0.4,0,0.7,0.1,0.8,0.3c0.2,0.2,0.3,0.6,0.3,1l1.2,0.2
		c0-0.3-0.1-0.5-0.1-0.8c0-0.2,0.1-0.5,0.4-0.7c0.2-0.3,0.5-0.3,0.8-0.3c0.5,0,0.8,0,1,0.3c0.3,0.2,0.4,0.5,0.4,0.8
		c0,0.3-0.1,0.5-0.3,0.8c-0.2,0.1-0.5,0.3-0.9,0.4l0.2,1.5c0.6-0.2,1.2-0.5,1.6-0.9c0.5-0.4,0.7-1.1,0.7-1.8c0-0.8-0.3-1.4-0.8-1.9
		c-0.4-0.5-1-0.7-1.8-0.7C25.1,323.8,24.6,323.8,24.3,324.1z"/>
	<path d="M27.9,349.8h-1.4v3c-0.1,0-0.3-0.2-0.4-0.3c-0.2-0.1-0.5-0.4-0.9-0.9c-0.4-0.5-0.8-0.8-1.1-1c-0.3-0.3-0.6-0.5-1-0.7
		c-0.3-0.1-0.7-0.1-1-0.1c-0.6,0-1.1,0.3-1.5,0.7c-0.5,0.4-0.7,1.1-0.7,1.8c0,0.8,0.2,1.3,0.5,1.8c0.4,0.5,1,0.8,1.9,0.9l0.1-1.6
		c-0.4,0-0.7-0.1-1-0.3c-0.1-0.2-0.2-0.4-0.2-0.7c0-0.3,0.1-0.6,0.2-0.8c0.3-0.2,0.5-0.3,0.9-0.3c0.3,0,0.6,0.1,0.9,0.3
		c0.2,0.2,0.7,0.6,1.3,1.3c0.8,0.9,1.4,1.4,1.9,1.7s1,0.5,1.5,0.5V349.8z"/>
	<path d="M23.3,380.5c-0.2-0.8-0.6-1.5-1.1-2h5.7V377h-8v1.2c0.5,0.1,0.9,0.5,1.3,0.9c0.4,0.5,0.6,1,0.7,1.4H23.3z"/>
	<path d="M27.2,405.5c0.6-0.5,0.9-1.2,0.9-2c0-0.7-0.3-1.3-0.8-1.8c-0.7-0.5-1.8-0.7-3.4-0.7c-1.5,0-2.5,0.2-3.2,0.7
		c-0.5,0.5-0.8,1.1-0.8,1.8c0,0.8,0.3,1.4,0.8,1.8c0.7,0.6,1.7,0.9,3.2,0.9C25.5,406.2,26.6,405.9,27.2,405.5z M26.6,404
		c-0.1,0.2-0.3,0.3-0.7,0.4c-0.3,0.1-1,0.1-2,0.1c-0.8,0-1.5,0-2-0.1c-0.2-0.1-0.5-0.2-0.5-0.4c-0.1-0.1-0.2-0.3-0.2-0.5
		c0-0.2,0.1-0.3,0.2-0.5c0-0.1,0.3-0.2,0.7-0.3c0.3-0.1,1-0.2,1.8-0.2c1,0,1.7,0.1,2,0.2c0.4,0.1,0.6,0.2,0.7,0.3
		c0.2,0.2,0.2,0.3,0.2,0.5C26.8,403.7,26.8,403.9,26.6,404z"/>
	<path fill="#FFFFFF" d="M25.9,404.4c0.4-0.1,0.6-0.2,0.7-0.4c0.2-0.1,0.2-0.3,0.2-0.5c0-0.2,0-0.3-0.2-0.5
		c-0.1-0.1-0.3-0.2-0.7-0.3c-0.3-0.1-1-0.2-2-0.2c-0.8,0-1.5,0.1-1.8,0.2c-0.4,0.1-0.7,0.2-0.7,0.3c-0.1,0.2-0.2,0.3-0.2,0.5
		c0,0.2,0.1,0.4,0.2,0.5c0,0.2,0.3,0.3,0.5,0.4c0.5,0.1,1.2,0.1,2,0.1C24.9,404.5,25.6,404.5,25.9,404.4z"/>
	<path fill="#FFFFFF" d="M36.9,411.7c-0.8,0.8-1.1,1.7-1.1,2.9s0.3,2.2,1.1,3c0.9,0.7,1.9,1.2,3,1.2c1.1,0,2.1-0.5,2.9-1.2
		c0.8-0.8,1.2-1.8,1.2-3s-0.4-2.1-1.2-2.9c-0.8-0.9-1.8-1.3-2.9-1.3C38.8,410.4,37.8,410.8,36.9,411.7z"/>
	<path fill="none" stroke="#000000" stroke-width="0" stroke-linecap="round" stroke-linejoin="round" d="M35.8,414.6
		c0,1.2,0.3,2.2,1.1,3c0.9,0.7,1.9,1.2,3,1.2c1.1,0,2.1-0.5,2.9-1.2c0.8-0.8,1.2-1.8,1.2-3s-0.4-2.1-1.2-2.9
		c-0.8-0.9-1.8-1.3-2.9-1.3c-1.1,0-2.1,0.4-3,1.3C36.1,412.5,35.8,413.4,35.8,414.6"/>
	<polyline fill="none" stroke="#333333" stroke-width="0" stroke-linecap="round" stroke-linejoin="round" points="7,4.2 7,425.1 
		72.3,425.1 72.3,4.2 7,4.2 	"/>
	
		<line fill="none" stroke="#555555" stroke-width="0" stroke-linecap="round" stroke-linejoin="round" x1="71.5" y1="41.5" x2="65.9" y2="41.5"/>
	
		<line fill="none" stroke="#555555" stroke-width="0" stroke-linecap="round" stroke-linejoin="round" x1="71.5" y1="46.4" x2="65.9" y2="46.4"/>
	
		<line fill="none" stroke="#555555" stroke-width="0" stroke-linecap="round" stroke-linejoin="round" x1="71.5" y1="31.7" x2="65.9" y2="31.7"/>
	
		<line fill="none" stroke="#555555" stroke-width="0" stroke-linecap="round" stroke-linejoin="round" x1="71.5" y1="26.9" x2="65.9" y2="26.9"/>
	
		<line fill="none" stroke="#555555" stroke-width="0" stroke-linecap="round" stroke-linejoin="round" x1="71.5" y1="22" x2="65.9" y2="22"/>
	
		<line fill="none" stroke="#555555" stroke-width="0" stroke-linecap="round" stroke-linejoin="round" x1="71.5" y1="16" x2="65.9" y2="16"/>
	
		<line fill="none" stroke="#555555" stroke-width="0" stroke-linecap="round" stroke-linejoin="round" x1="7.9" y1="26.5" x2="14.3" y2="26.5"/>
	
		<line fill="none" stroke="#555555" stroke-width="0" stroke-linecap="round" stroke-linejoin="round" x1="7.9" y1="23.8" x2="14.3" y2="23.8"/>
	
		<line fill="none" stroke="#555555" stroke-width="0" stroke-linecap="round" stroke-linejoin="round" x1="7.9" y1="21.3" x2="14.3" y2="21.3"/>
	
		<line fill="none" stroke="#555555" stroke-width="0" stroke-linecap="round" stroke-linejoin="round" x1="7.9" y1="18.7" x2="14.3" y2="18.7"/>
	
		<line fill="none" stroke="#555555" stroke-width="0" stroke-linecap="round" stroke-linejoin="round" x1="7.9" y1="16.2" x2="16.8" y2="16.2"/>
	
		<line fill="none" stroke="#555555" stroke-width="0" stroke-linecap="round" stroke-linejoin="round" x1="7.9" y1="34.2" x2="14.3" y2="34.2"/>
	
		<line fill="none" stroke="#555555" stroke-width="0" stroke-linecap="round" stroke-linejoin="round" x1="7.9" y1="31.7" x2="14.3" y2="31.7"/>
	
		<line fill="none" stroke="#555555" stroke-width="0" stroke-linecap="round" stroke-linejoin="round" x1="7.9" y1="36.8" x2="14.3" y2="36.8"/>
	
		<line fill="none" stroke="#555555" stroke-width="0" stroke-linecap="round" stroke-linejoin="round" x1="7.9" y1="49.7" x2="14.3" y2="49.7"/>
	
		<line fill="none" stroke="#555555" stroke-width="0" stroke-linecap="round" stroke-linejoin="round" x1="7.9" y1="39.4" x2="14.3" y2="39.4"/>
	
		<line fill="none" stroke="#555555" stroke-width="0" stroke-linecap="round" stroke-linejoin="round" x1="7.9" y1="44.5" x2="14.3" y2="44.5"/>
	
		<line fill="none" stroke="#555555" stroke-width="0" stroke-linecap="round" stroke-linejoin="round" x1="7.9" y1="47.1" x2="14.3" y2="47.1"/>
	
		<line fill="none" stroke="#555555" stroke-width="0" stroke-linecap="round" stroke-linejoin="round" x1="7.9" y1="42" x2="16.8" y2="42"/>
	
		<line fill="none" stroke="#555555" stroke-width="0" stroke-linecap="round" stroke-linejoin="round" x1="7.9" y1="29" x2="15.4" y2="29"/>
	
		<line fill="none" stroke="#555555" stroke-width="0" stroke-linecap="round" stroke-linejoin="round" x1="7.9" y1="52.3" x2="14.3" y2="52.3"/>
	
		<line fill="none" stroke="#555555" stroke-width="0" stroke-linecap="round" stroke-linejoin="round" x1="7.9" y1="60" x2="14.3" y2="60"/>
	
		<line fill="none" stroke="#555555" stroke-width="0" stroke-linecap="round" stroke-linejoin="round" x1="7.9" y1="57.5" x2="14.3" y2="57.5"/>
	
		<line fill="none" stroke="#555555" stroke-width="0" stroke-linecap="round" stroke-linejoin="round" x1="7.9" y1="62.7" x2="14.3" y2="62.7"/>
	
		<line fill="none" stroke="#555555" stroke-width="0" stroke-linecap="round" stroke-linejoin="round" x1="71.5" y1="36.6" x2="64.8" y2="36.6"/>
	
		<line fill="none" stroke="#555555" stroke-width="0" stroke-linecap="round" stroke-linejoin="round" x1="7.9" y1="73" x2="14.3" y2="73"/>
	
		<line fill="none" stroke="#555555" stroke-width="0" stroke-linecap="round" stroke-linejoin="round" x1="7.9" y1="70.3" x2="14.3" y2="70.3"/>
	
		<line fill="none" stroke="#555555" stroke-width="0" stroke-linecap="round" stroke-linejoin="round" x1="7.9" y1="65.2" x2="14.3" y2="65.2"/>
	
		<line fill="none" stroke="#555555" stroke-width="0" stroke-linecap="round" stroke-linejoin="round" x1="7.9" y1="67.8" x2="16.8" y2="67.8"/>
	
		<line fill="none" stroke="#555555" stroke-width="0" stroke-linecap="round" stroke-linejoin="round" x1="7.9" y1="54.8" x2="15.4" y2="54.8"/>
	
		<line fill="none" stroke="#555555" stroke-width="0" stroke-linecap="round" stroke-linejoin="round" x1="7.9" y1="78.2" x2="14.3" y2="78.2"/>
	
		<line fill="none" stroke="#555555" stroke-width="0" stroke-linecap="round" stroke-linejoin="round" x1="7.9" y1="83.3" x2="14.3" y2="83.3"/>
	
		<line fill="none" stroke="#555555" stroke-width="0" stroke-linecap="round" stroke-linejoin="round" x1="7.9" y1="88.4" x2="14.3" y2="88.4"/>
	
		<line fill="none" stroke="#555555" stroke-width="0" stroke-linecap="round" stroke-linejoin="round" x1="7.9" y1="85.8" x2="14.3" y2="85.8"/>
	
		<line fill="none" stroke="#555555" stroke-width="0" stroke-linecap="round" stroke-linejoin="round" x1="7.9" y1="98.8" x2="14.3" y2="98.8"/>
	
		<line fill="none" stroke="#555555" stroke-width="0" stroke-linecap="round" stroke-linejoin="round" x1="7.9" y1="96.2" x2="14.3" y2="96.2"/>
	
		<line fill="none" stroke="#555555" stroke-width="0" stroke-linecap="round" stroke-linejoin="round" x1="7.9" y1="91" x2="14.3" y2="91"/>
	
		<line fill="none" stroke="#555555" stroke-width="0" stroke-linecap="round" stroke-linejoin="round" x1="7.9" y1="93.6" x2="16.8" y2="93.6"/>
	
		<line fill="none" stroke="#555555" stroke-width="0" stroke-linecap="round" stroke-linejoin="round" x1="7.9" y1="80.7" x2="15.4" y2="80.7"/>
	
		<line fill="none" stroke="#555555" stroke-width="0" stroke-linecap="round" stroke-linejoin="round" x1="71.5" y1="75.8" x2="65.9" y2="75.8"/>
	
		<line fill="none" stroke="#555555" stroke-width="0" stroke-linecap="round" stroke-linejoin="round" x1="71.5" y1="56.2" x2="65.9" y2="56.2"/>
	
		<line fill="none" stroke="#555555" stroke-width="0" stroke-linecap="round" stroke-linejoin="round" x1="71.5" y1="66" x2="65.9" y2="66"/>
	
		<line fill="none" stroke="#555555" stroke-width="0" stroke-linecap="round" stroke-linejoin="round" x1="71.5" y1="71" x2="65.9" y2="71"/>
	
		<line fill="none" stroke="#555555" stroke-width="0" stroke-linecap="round" stroke-linejoin="round" x1="71.5" y1="90.5" x2="65.9" y2="90.5"/>
	
		<line fill="none" stroke="#555555" stroke-width="0" stroke-linecap="round" stroke-linejoin="round" x1="71.5" y1="95.4" x2="65.9" y2="95.4"/>
	
		<line fill="none" stroke="#555555" stroke-width="0" stroke-linecap="round" stroke-linejoin="round" x1="71.5" y1="80.7" x2="65.9" y2="80.7"/>
	
		<line fill="none" stroke="#555555" stroke-width="0" stroke-linecap="round" stroke-linejoin="round" x1="71.5" y1="100.2" x2="65.9" y2="100.2"/>
	
		<line fill="none" stroke="#555555" stroke-width="0" stroke-linecap="round" stroke-linejoin="round" x1="71.5" y1="61.1" x2="63.6" y2="61.1"/>
	
		<line fill="none" stroke="#555555" stroke-width="0" stroke-linecap="round" stroke-linejoin="round" x1="71.5" y1="85.7" x2="64.8" y2="85.7"/>
	
		<line fill="none" stroke="#555555" stroke-width="0" stroke-linecap="round" stroke-linejoin="round" x1="7.9" y1="75.5" x2="14.3" y2="75.5"/>
	
		<line fill="none" stroke="#555555" stroke-width="0" stroke-linecap="round" stroke-linejoin="round" x1="71.5" y1="124.8" x2="65.9" y2="124.8"/>
	
		<line fill="none" stroke="#555555" stroke-width="0" stroke-linecap="round" stroke-linejoin="round" x1="71.5" y1="105.2" x2="65.9" y2="105.2"/>
	
		<line fill="none" stroke="#555555" stroke-width="0" stroke-linecap="round" stroke-linejoin="round" x1="71.5" y1="119.9" x2="65.9" y2="119.9"/>
	
		<line fill="none" stroke="#555555" stroke-width="0" stroke-linecap="round" stroke-linejoin="round" x1="71.5" y1="115" x2="65.9" y2="115"/>
	
		<line fill="none" stroke="#555555" stroke-width="0" stroke-linecap="round" stroke-linejoin="round" x1="71.5" y1="139.5" x2="65.9" y2="139.5"/>
	
		<line fill="none" stroke="#555555" stroke-width="0" stroke-linecap="round" stroke-linejoin="round" x1="71.5" y1="129.7" x2="65.9" y2="129.7"/>
	
		<line fill="none" stroke="#555555" stroke-width="0" stroke-linecap="round" stroke-linejoin="round" x1="71.5" y1="144.5" x2="65.9" y2="144.5"/>
	
		<line fill="none" stroke="#555555" stroke-width="0" stroke-linecap="round" stroke-linejoin="round" x1="71.5" y1="149.3" x2="65.9" y2="149.3"/>
	
		<line fill="none" stroke="#555555" stroke-width="0" stroke-linecap="round" stroke-linejoin="round" x1="71.5" y1="110.2" x2="63.6" y2="110.2"/>
	
		<line fill="none" stroke="#555555" stroke-width="0" stroke-linecap="round" stroke-linejoin="round" x1="71.5" y1="134.6" x2="64.8" y2="134.6"/>
	
		<line fill="none" stroke="#555555" stroke-width="0" stroke-linecap="round" stroke-linejoin="round" x1="7.9" y1="111.7" x2="14.3" y2="111.7"/>
	
		<line fill="none" stroke="#555555" stroke-width="0" stroke-linecap="round" stroke-linejoin="round" x1="7.9" y1="104" x2="14.3" y2="104"/>
	
		<line fill="none" stroke="#555555" stroke-width="0" stroke-linecap="round" stroke-linejoin="round" x1="7.9" y1="109.1" x2="14.3" y2="109.1"/>
	
		<line fill="none" stroke="#555555" stroke-width="0" stroke-linecap="round" stroke-linejoin="round" x1="7.9" y1="101.3" x2="14.3" y2="101.3"/>
	
		<line fill="none" stroke="#555555" stroke-width="0" stroke-linecap="round" stroke-linejoin="round" x1="7.9" y1="116.8" x2="14.3" y2="116.8"/>
	
		<line fill="none" stroke="#555555" stroke-width="0" stroke-linecap="round" stroke-linejoin="round" x1="7.9" y1="122" x2="14.3" y2="122"/>
	
		<line fill="none" stroke="#555555" stroke-width="0" stroke-linecap="round" stroke-linejoin="round" x1="7.9" y1="114.2" x2="14.3" y2="114.2"/>
	
		<line fill="none" stroke="#555555" stroke-width="0" stroke-linecap="round" stroke-linejoin="round" x1="7.9" y1="124.7" x2="14.3" y2="124.7"/>
	
		<line fill="none" stroke="#555555" stroke-width="0" stroke-linecap="round" stroke-linejoin="round" x1="7.9" y1="119.5" x2="16.8" y2="119.5"/>
	
		<line fill="none" stroke="#555555" stroke-width="0" stroke-linecap="round" stroke-linejoin="round" x1="7.9" y1="106.5" x2="15.4" y2="106.5"/>
	
		<line fill="none" stroke="#555555" stroke-width="0" stroke-linecap="round" stroke-linejoin="round" x1="7.9" y1="127.2" x2="14.3" y2="127.2"/>
	
		<line fill="none" stroke="#555555" stroke-width="0" stroke-linecap="round" stroke-linejoin="round" x1="7.9" y1="129.8" x2="14.3" y2="129.8"/>
	
		<line fill="none" stroke="#555555" stroke-width="0" stroke-linecap="round" stroke-linejoin="round" x1="7.9" y1="134.9" x2="14.3" y2="134.9"/>
	
		<line fill="none" stroke="#555555" stroke-width="0" stroke-linecap="round" stroke-linejoin="round" x1="7.9" y1="137.5" x2="14.3" y2="137.5"/>
	
		<line fill="none" stroke="#555555" stroke-width="0" stroke-linecap="round" stroke-linejoin="round" x1="7.9" y1="140.1" x2="14.3" y2="140.1"/>
	
		<line fill="none" stroke="#555555" stroke-width="0" stroke-linecap="round" stroke-linejoin="round" x1="7.9" y1="142.7" x2="14.3" y2="142.7"/>
	
		<line fill="none" stroke="#555555" stroke-width="0" stroke-linecap="round" stroke-linejoin="round" x1="7.9" y1="150.4" x2="14.3" y2="150.4"/>
	
		<line fill="none" stroke="#555555" stroke-width="0" stroke-linecap="round" stroke-linejoin="round" x1="7.9" y1="147.8" x2="14.3" y2="147.8"/>
	
		<line fill="none" stroke="#555555" stroke-width="0" stroke-linecap="round" stroke-linejoin="round" x1="7.9" y1="145.2" x2="16.8" y2="145.2"/>
	
		<line fill="none" stroke="#555555" stroke-width="0" stroke-linecap="round" stroke-linejoin="round" x1="7.9" y1="132.3" x2="15.4" y2="132.3"/>
	
		<line fill="none" stroke="#555555" stroke-width="0" stroke-linecap="round" stroke-linejoin="round" x1="7.9" y1="153" x2="14.3" y2="153"/>
	
		<line fill="none" stroke="#555555" stroke-width="0" stroke-linecap="round" stroke-linejoin="round" x1="7.9" y1="155.5" x2="14.3" y2="155.5"/>
	
		<line fill="none" stroke="#555555" stroke-width="0" stroke-linecap="round" stroke-linejoin="round" x1="7.9" y1="160.7" x2="14.3" y2="160.7"/>
	
		<line fill="none" stroke="#555555" stroke-width="0" stroke-linecap="round" stroke-linejoin="round" x1="7.9" y1="165.9" x2="14.3" y2="165.9"/>
	
		<line fill="none" stroke="#555555" stroke-width="0" stroke-linecap="round" stroke-linejoin="round" x1="7.9" y1="168.5" x2="14.3" y2="168.5"/>
	
		<line fill="none" stroke="#555555" stroke-width="0" stroke-linecap="round" stroke-linejoin="round" x1="7.9" y1="163.3" x2="14.3" y2="163.3"/>
	
		<line fill="none" stroke="#555555" stroke-width="0" stroke-linecap="round" stroke-linejoin="round" x1="7.9" y1="173.7" x2="14.3" y2="173.7"/>
	
		<line fill="none" stroke="#555555" stroke-width="0" stroke-linecap="round" stroke-linejoin="round" x1="7.9" y1="171" x2="16.8" y2="171"/>
	
		<line fill="none" stroke="#555555" stroke-width="0" stroke-linecap="round" stroke-linejoin="round" x1="7.9" y1="158.2" x2="15.4" y2="158.2"/>
	
		<line fill="none" stroke="#555555" stroke-width="0" stroke-linecap="round" stroke-linejoin="round" x1="7.9" y1="176.2" x2="14.3" y2="176.2"/>
	
		<line fill="none" stroke="#555555" stroke-width="0" stroke-linecap="round" stroke-linejoin="round" x1="7.9" y1="178.8" x2="14.3" y2="178.8"/>
	
		<line fill="none" stroke="#555555" stroke-width="0" stroke-linecap="round" stroke-linejoin="round" x1="7.9" y1="181.4" x2="14.3" y2="181.4"/>
	
		<line fill="none" stroke="#555555" stroke-width="0" stroke-linecap="round" stroke-linejoin="round" x1="7.9" y1="186.5" x2="14.3" y2="186.5"/>
	
		<line fill="none" stroke="#555555" stroke-width="0" stroke-linecap="round" stroke-linejoin="round" x1="7.9" y1="194.3" x2="14.3" y2="194.3"/>
	
		<line fill="none" stroke="#555555" stroke-width="0" stroke-linecap="round" stroke-linejoin="round" x1="7.9" y1="189.2" x2="14.3" y2="189.2"/>
	
		<line fill="none" stroke="#555555" stroke-width="0" stroke-linecap="round" stroke-linejoin="round" x1="7.9" y1="191.7" x2="14.3" y2="191.7"/>
	
		<line fill="none" stroke="#555555" stroke-width="0" stroke-linecap="round" stroke-linejoin="round" x1="7.9" y1="199.4" x2="14.3" y2="199.4"/>
	
		<line fill="none" stroke="#555555" stroke-width="0" stroke-linecap="round" stroke-linejoin="round" x1="7.9" y1="196.8" x2="16.8" y2="196.8"/>
	
		<line fill="none" stroke="#555555" stroke-width="0" stroke-linecap="round" stroke-linejoin="round" x1="7.9" y1="184" x2="15.4" y2="184"/>
	
		<line fill="none" stroke="#555555" stroke-width="0" stroke-linecap="round" stroke-linejoin="round" x1="71.5" y1="173.8" x2="65.9" y2="173.8"/>
	
		<line fill="none" stroke="#555555" stroke-width="0" stroke-linecap="round" stroke-linejoin="round" x1="71.5" y1="154.2" x2="65.9" y2="154.2"/>
	
		<line fill="none" stroke="#555555" stroke-width="0" stroke-linecap="round" stroke-linejoin="round" x1="71.5" y1="168.8" x2="65.9" y2="168.8"/>
	
		<line fill="none" stroke="#555555" stroke-width="0" stroke-linecap="round" stroke-linejoin="round" x1="71.5" y1="164" x2="65.9" y2="164"/>
	
		<line fill="none" stroke="#555555" stroke-width="0" stroke-linecap="round" stroke-linejoin="round" x1="71.5" y1="193.3" x2="65.9" y2="193.3"/>
	
		<line fill="none" stroke="#555555" stroke-width="0" stroke-linecap="round" stroke-linejoin="round" x1="71.5" y1="188.4" x2="65.9" y2="188.4"/>
	
		<line fill="none" stroke="#555555" stroke-width="0" stroke-linecap="round" stroke-linejoin="round" x1="71.5" y1="178.7" x2="65.9" y2="178.7"/>
	
		<line fill="none" stroke="#555555" stroke-width="0" stroke-linecap="round" stroke-linejoin="round" x1="71.5" y1="198.3" x2="65.9" y2="198.3"/>
	
		<line fill="none" stroke="#555555" stroke-width="0" stroke-linecap="round" stroke-linejoin="round" x1="71.5" y1="159.1" x2="63.6" y2="159.1"/>
	
		<line fill="none" stroke="#555555" stroke-width="0" stroke-linecap="round" stroke-linejoin="round" x1="71.5" y1="183.5" x2="64.8" y2="183.5"/>
	
		<line fill="none" stroke="#555555" stroke-width="0" stroke-linecap="round" stroke-linejoin="round" x1="71.5" y1="212.9" x2="65.9" y2="212.9"/>
	
		<line fill="none" stroke="#555555" stroke-width="0" stroke-linecap="round" stroke-linejoin="round" x1="71.5" y1="203.2" x2="65.9" y2="203.2"/>
	
		<line fill="none" stroke="#555555" stroke-width="0" stroke-linecap="round" stroke-linejoin="round" x1="71.5" y1="217.8" x2="65.9" y2="217.8"/>
	
		<line fill="none" stroke="#555555" stroke-width="0" stroke-linecap="round" stroke-linejoin="round" x1="71.5" y1="222.8" x2="65.9" y2="222.8"/>
	
		<line fill="none" stroke="#555555" stroke-width="0" stroke-linecap="round" stroke-linejoin="round" x1="71.5" y1="237.4" x2="65.9" y2="237.4"/>
	
		<line fill="none" stroke="#555555" stroke-width="0" stroke-linecap="round" stroke-linejoin="round" x1="71.5" y1="242.3" x2="65.9" y2="242.3"/>
	
		<line fill="none" stroke="#555555" stroke-width="0" stroke-linecap="round" stroke-linejoin="round" x1="71.5" y1="227.7" x2="65.9" y2="227.7"/>
	
		<line fill="none" stroke="#555555" stroke-width="0" stroke-linecap="round" stroke-linejoin="round" x1="71.5" y1="247.3" x2="65.9" y2="247.3"/>
	
		<line fill="none" stroke="#555555" stroke-width="0" stroke-linecap="round" stroke-linejoin="round" x1="71.5" y1="232.5" x2="64.8" y2="232.5"/>
	
		<line fill="none" stroke="#555555" stroke-width="0" stroke-linecap="round" stroke-linejoin="round" x1="71.5" y1="208" x2="63.6" y2="208"/>
	
		<line fill="none" stroke="#555555" stroke-width="0" stroke-linecap="round" stroke-linejoin="round" x1="7.9" y1="212.4" x2="14.3" y2="212.4"/>
	
		<line fill="none" stroke="#555555" stroke-width="0" stroke-linecap="round" stroke-linejoin="round" x1="7.9" y1="202" x2="14.3" y2="202"/>
	
		<line fill="none" stroke="#555555" stroke-width="0" stroke-linecap="round" stroke-linejoin="round" x1="7.9" y1="207.3" x2="14.3" y2="207.3"/>
	
		<line fill="none" stroke="#555555" stroke-width="0" stroke-linecap="round" stroke-linejoin="round" x1="7.9" y1="204.7" x2="14.3" y2="204.7"/>
	
		<line fill="none" stroke="#555555" stroke-width="0" stroke-linecap="round" stroke-linejoin="round" x1="7.9" y1="217.5" x2="14.3" y2="217.5"/>
	
		<line fill="none" stroke="#555555" stroke-width="0" stroke-linecap="round" stroke-linejoin="round" x1="7.9" y1="220.1" x2="14.3" y2="220.1"/>
	
		<line fill="none" stroke="#555555" stroke-width="0" stroke-linecap="round" stroke-linejoin="round" x1="7.9" y1="215" x2="14.3" y2="215"/>
	
		<line fill="none" stroke="#555555" stroke-width="0" stroke-linecap="round" stroke-linejoin="round" x1="7.9" y1="222.7" x2="16.8" y2="222.7"/>
	
		<line fill="none" stroke="#555555" stroke-width="0" stroke-linecap="round" stroke-linejoin="round" x1="7.9" y1="209.8" x2="15.4" y2="209.8"/>
	
		<line fill="none" stroke="#555555" stroke-width="0" stroke-linecap="round" stroke-linejoin="round" x1="7.9" y1="225.3" x2="14.3" y2="225.3"/>
	
		<line fill="none" stroke="#555555" stroke-width="0" stroke-linecap="round" stroke-linejoin="round" x1="7.9" y1="230.4" x2="14.3" y2="230.4"/>
	
		<line fill="none" stroke="#555555" stroke-width="0" stroke-linecap="round" stroke-linejoin="round" x1="7.9" y1="227.8" x2="14.3" y2="227.8"/>
	
		<line fill="none" stroke="#555555" stroke-width="0" stroke-linecap="round" stroke-linejoin="round" x1="7.9" y1="233" x2="14.3" y2="233"/>
	
		<line fill="none" stroke="#555555" stroke-width="0" stroke-linecap="round" stroke-linejoin="round" x1="7.9" y1="238.2" x2="14.3" y2="238.2"/>
	
		<line fill="none" stroke="#555555" stroke-width="0" stroke-linecap="round" stroke-linejoin="round" x1="7.9" y1="246" x2="14.3" y2="246"/>
	
		<line fill="none" stroke="#555555" stroke-width="0" stroke-linecap="round" stroke-linejoin="round" x1="7.9" y1="240.8" x2="14.3" y2="240.8"/>
	
		<line fill="none" stroke="#555555" stroke-width="0" stroke-linecap="round" stroke-linejoin="round" x1="7.9" y1="243.3" x2="14.3" y2="243.3"/>
	
		<line fill="none" stroke="#555555" stroke-width="0" stroke-linecap="round" stroke-linejoin="round" x1="7.9" y1="248.5" x2="16.8" y2="248.5"/>
	
		<line fill="none" stroke="#555555" stroke-width="0" stroke-linecap="round" stroke-linejoin="round" x1="7.9" y1="235.7" x2="15.4" y2="235.7"/>
	
		<line fill="none" stroke="#555555" stroke-width="0" stroke-linecap="round" stroke-linejoin="round" x1="7.9" y1="258.9" x2="14.3" y2="258.9"/>
	
		<line fill="none" stroke="#555555" stroke-width="0" stroke-linecap="round" stroke-linejoin="round" x1="7.9" y1="251.2" x2="14.3" y2="251.2"/>
	
		<line fill="none" stroke="#555555" stroke-width="0" stroke-linecap="round" stroke-linejoin="round" x1="7.9" y1="253.7" x2="14.3" y2="253.7"/>
	
		<line fill="none" stroke="#555555" stroke-width="0" stroke-linecap="round" stroke-linejoin="round" x1="7.9" y1="256.3" x2="14.3" y2="256.3"/>
	
		<line fill="none" stroke="#555555" stroke-width="0" stroke-linecap="round" stroke-linejoin="round" x1="7.9" y1="264" x2="14.3" y2="264"/>
	
		<line fill="none" stroke="#555555" stroke-width="0" stroke-linecap="round" stroke-linejoin="round" x1="7.9" y1="269.2" x2="14.3" y2="269.2"/>
	
		<line fill="none" stroke="#555555" stroke-width="0" stroke-linecap="round" stroke-linejoin="round" x1="7.9" y1="266.7" x2="14.3" y2="266.7"/>
	
		<line fill="none" stroke="#555555" stroke-width="0" stroke-linecap="round" stroke-linejoin="round" x1="7.9" y1="271.8" x2="14.3" y2="271.8"/>
	
		<line fill="none" stroke="#555555" stroke-width="0" stroke-linecap="round" stroke-linejoin="round" x1="7.9" y1="274.3" x2="16.8" y2="274.3"/>
	
		<line fill="none" stroke="#555555" stroke-width="0" stroke-linecap="round" stroke-linejoin="round" x1="7.9" y1="261.5" x2="15.4" y2="261.5"/>
	
		<line fill="none" stroke="#555555" stroke-width="0" stroke-linecap="round" stroke-linejoin="round" x1="7.9" y1="276.9" x2="14.3" y2="276.9"/>
	
		<line fill="none" stroke="#555555" stroke-width="0" stroke-linecap="round" stroke-linejoin="round" x1="7.9" y1="279.5" x2="14.3" y2="279.5"/>
	
		<line fill="none" stroke="#555555" stroke-width="0" stroke-linecap="round" stroke-linejoin="round" x1="7.9" y1="282.1" x2="14.3" y2="282.1"/>
	
		<line fill="none" stroke="#555555" stroke-width="0" stroke-linecap="round" stroke-linejoin="round" x1="7.9" y1="284.7" x2="14.3" y2="284.7"/>
	
		<line fill="none" stroke="#555555" stroke-width="0" stroke-linecap="round" stroke-linejoin="round" x1="7.9" y1="297.6" x2="14.3" y2="297.6"/>
	
		<line fill="none" stroke="#555555" stroke-width="0" stroke-linecap="round" stroke-linejoin="round" x1="7.9" y1="295" x2="14.3" y2="295"/>
	
		<line fill="none" stroke="#555555" stroke-width="0" stroke-linecap="round" stroke-linejoin="round" x1="7.9" y1="292.5" x2="14.3" y2="292.5"/>
	
		<line fill="none" stroke="#555555" stroke-width="0" stroke-linecap="round" stroke-linejoin="round" x1="7.9" y1="289.9" x2="14.3" y2="289.9"/>
	
		<line fill="none" stroke="#555555" stroke-width="0" stroke-linecap="round" stroke-linejoin="round" x1="7.9" y1="287.3" x2="15.4" y2="287.3"/>
	
		<line fill="none" stroke="#555555" stroke-width="0" stroke-linecap="round" stroke-linejoin="round" x1="71.5" y1="252.1" x2="65.9" y2="252.1"/>
	
		<line fill="none" stroke="#555555" stroke-width="0" stroke-linecap="round" stroke-linejoin="round" x1="71.5" y1="266.8" x2="65.9" y2="266.8"/>
	
		<line fill="none" stroke="#555555" stroke-width="0" stroke-linecap="round" stroke-linejoin="round" x1="71.5" y1="261.9" x2="65.9" y2="261.9"/>
	
		<line fill="none" stroke="#555555" stroke-width="0" stroke-linecap="round" stroke-linejoin="round" x1="71.5" y1="271.7" x2="65.9" y2="271.7"/>
	
		<line fill="none" stroke="#555555" stroke-width="0" stroke-linecap="round" stroke-linejoin="round" x1="71.5" y1="276.6" x2="65.9" y2="276.6"/>
	
		<line fill="none" stroke="#555555" stroke-width="0" stroke-linecap="round" stroke-linejoin="round" x1="71.5" y1="286.4" x2="65.9" y2="286.4"/>
	
		<line fill="none" stroke="#555555" stroke-width="0" stroke-linecap="round" stroke-linejoin="round" x1="71.5" y1="291.3" x2="65.9" y2="291.3"/>
	
		<line fill="none" stroke="#555555" stroke-width="0" stroke-linecap="round" stroke-linejoin="round" x1="71.5" y1="296.3" x2="65.9" y2="296.3"/>
	
		<line fill="none" stroke="#555555" stroke-width="0" stroke-linecap="round" stroke-linejoin="round" x1="71.5" y1="281.5" x2="64.8" y2="281.5"/>
	
		<line fill="none" stroke="#555555" stroke-width="0" stroke-linecap="round" stroke-linejoin="round" x1="71.5" y1="257" x2="63.6" y2="257"/>
	
		<line fill="none" stroke="#555555" stroke-width="0" stroke-linecap="round" stroke-linejoin="round" x1="71.5" y1="301.1" x2="65.9" y2="301.1"/>
	
		<line fill="none" stroke="#555555" stroke-width="0" stroke-linecap="round" stroke-linejoin="round" x1="71.5" y1="310.9" x2="65.9" y2="310.9"/>
	
		<line fill="none" stroke="#555555" stroke-width="0" stroke-linecap="round" stroke-linejoin="round" x1="71.5" y1="320.6" x2="65.9" y2="320.6"/>
	
		<line fill="none" stroke="#555555" stroke-width="0" stroke-linecap="round" stroke-linejoin="round" x1="71.5" y1="315.8" x2="65.9" y2="315.8"/>
	
		<line fill="none" stroke="#555555" stroke-width="0" stroke-linecap="round" stroke-linejoin="round" x1="71.5" y1="340.3" x2="65.9" y2="340.3"/>
	
		<line fill="none" stroke="#555555" stroke-width="0" stroke-linecap="round" stroke-linejoin="round" x1="71.5" y1="335.3" x2="65.9" y2="335.3"/>
	
		<line fill="none" stroke="#555555" stroke-width="0" stroke-linecap="round" stroke-linejoin="round" x1="71.5" y1="325.6" x2="65.9" y2="325.6"/>
	
		<line fill="none" stroke="#555555" stroke-width="0" stroke-linecap="round" stroke-linejoin="round" x1="71.5" y1="345.2" x2="65.9" y2="345.2"/>
	
		<line fill="none" stroke="#555555" stroke-width="0" stroke-linecap="round" stroke-linejoin="round" x1="71.5" y1="330.6" x2="64.8" y2="330.6"/>
	
		<line fill="none" stroke="#555555" stroke-width="0" stroke-linecap="round" stroke-linejoin="round" x1="71.5" y1="306" x2="63.6" y2="306"/>
	
		<line fill="none" stroke="#555555" stroke-width="0" stroke-linecap="round" stroke-linejoin="round" x1="7.9" y1="310.5" x2="14.3" y2="310.5"/>
	
		<line fill="none" stroke="#555555" stroke-width="0" stroke-linecap="round" stroke-linejoin="round" x1="7.9" y1="307.9" x2="14.3" y2="307.9"/>
	
		<line fill="none" stroke="#555555" stroke-width="0" stroke-linecap="round" stroke-linejoin="round" x1="7.9" y1="305.3" x2="14.3" y2="305.3"/>
	
		<line fill="none" stroke="#555555" stroke-width="0" stroke-linecap="round" stroke-linejoin="round" x1="7.9" y1="302.8" x2="14.3" y2="302.8"/>
	
		<line fill="none" stroke="#555555" stroke-width="0" stroke-linecap="round" stroke-linejoin="round" x1="7.9" y1="323.4" x2="14.3" y2="323.4"/>
	
		<line fill="none" stroke="#555555" stroke-width="0" stroke-linecap="round" stroke-linejoin="round" x1="7.9" y1="320.8" x2="14.3" y2="320.8"/>
	
		<line fill="none" stroke="#555555" stroke-width="0" stroke-linecap="round" stroke-linejoin="round" x1="7.9" y1="318.3" x2="14.3" y2="318.3"/>
	
		<line fill="none" stroke="#555555" stroke-width="0" stroke-linecap="round" stroke-linejoin="round" x1="7.9" y1="315.7" x2="14.3" y2="315.7"/>
	
		<line fill="none" stroke="#555555" stroke-width="0" stroke-linecap="round" stroke-linejoin="round" x1="7.9" y1="300.2" x2="16.8" y2="300.2"/>
	
		<line fill="none" stroke="#555555" stroke-width="0" stroke-linecap="round" stroke-linejoin="round" x1="7.9" y1="313.1" x2="15.4" y2="313.1"/>
	
		<line fill="none" stroke="#555555" stroke-width="0" stroke-linecap="round" stroke-linejoin="round" x1="7.9" y1="333.8" x2="14.3" y2="333.8"/>
	
		<line fill="none" stroke="#555555" stroke-width="0" stroke-linecap="round" stroke-linejoin="round" x1="7.9" y1="328.6" x2="14.3" y2="328.6"/>
	
		<line fill="none" stroke="#555555" stroke-width="0" stroke-linecap="round" stroke-linejoin="round" x1="7.9" y1="331.2" x2="14.3" y2="331.2"/>
	
		<line fill="none" stroke="#555555" stroke-width="0" stroke-linecap="round" stroke-linejoin="round" x1="7.9" y1="346.7" x2="14.3" y2="346.7"/>
	
		<line fill="none" stroke="#555555" stroke-width="0" stroke-linecap="round" stroke-linejoin="round" x1="7.9" y1="336.3" x2="14.3" y2="336.3"/>
	
		<line fill="none" stroke="#555555" stroke-width="0" stroke-linecap="round" stroke-linejoin="round" x1="7.9" y1="344.1" x2="14.3" y2="344.1"/>
	
		<line fill="none" stroke="#555555" stroke-width="0" stroke-linecap="round" stroke-linejoin="round" x1="7.9" y1="341.6" x2="14.3" y2="341.6"/>
	
		<line fill="none" stroke="#555555" stroke-width="0" stroke-linecap="round" stroke-linejoin="round" x1="7.9" y1="326" x2="16.8" y2="326"/>
	
		<line fill="none" stroke="#555555" stroke-width="0" stroke-linecap="round" stroke-linejoin="round" x1="7.9" y1="338.9" x2="15.4" y2="338.9"/>
	
		<line fill="none" stroke="#555555" stroke-width="0" stroke-linecap="round" stroke-linejoin="round" x1="7.9" y1="359.6" x2="14.3" y2="359.6"/>
	
		<line fill="none" stroke="#555555" stroke-width="0" stroke-linecap="round" stroke-linejoin="round" x1="7.9" y1="354.4" x2="14.3" y2="354.4"/>
	
		<line fill="none" stroke="#555555" stroke-width="0" stroke-linecap="round" stroke-linejoin="round" x1="7.9" y1="357" x2="14.3" y2="357"/>
	
		<line fill="none" stroke="#555555" stroke-width="0" stroke-linecap="round" stroke-linejoin="round" x1="7.9" y1="349.3" x2="14.3" y2="349.3"/>
	
		<line fill="none" stroke="#555555" stroke-width="0" stroke-linecap="round" stroke-linejoin="round" x1="7.9" y1="372.5" x2="14.3" y2="372.5"/>
	
		<line fill="none" stroke="#555555" stroke-width="0" stroke-linecap="round" stroke-linejoin="round" x1="7.9" y1="369.9" x2="14.3" y2="369.9"/>
	
		<line fill="none" stroke="#555555" stroke-width="0" stroke-linecap="round" stroke-linejoin="round" x1="7.9" y1="362.1" x2="14.3" y2="362.1"/>
	
		<line fill="none" stroke="#555555" stroke-width="0" stroke-linecap="round" stroke-linejoin="round" x1="7.9" y1="367.3" x2="14.3" y2="367.3"/>
	
		<line fill="none" stroke="#555555" stroke-width="0" stroke-linecap="round" stroke-linejoin="round" x1="7.9" y1="351.8" x2="16.8" y2="351.8"/>
	
		<line fill="none" stroke="#555555" stroke-width="0" stroke-linecap="round" stroke-linejoin="round" x1="7.9" y1="364.7" x2="15.4" y2="364.7"/>
	
		<line fill="none" stroke="#555555" stroke-width="0" stroke-linecap="round" stroke-linejoin="round" x1="7.9" y1="375.1" x2="14.3" y2="375.1"/>
	
		<line fill="none" stroke="#555555" stroke-width="0" stroke-linecap="round" stroke-linejoin="round" x1="7.9" y1="380.2" x2="14.3" y2="380.2"/>
	
		<line fill="none" stroke="#555555" stroke-width="0" stroke-linecap="round" stroke-linejoin="round" x1="7.9" y1="382.8" x2="14.3" y2="382.8"/>
	
		<line fill="none" stroke="#555555" stroke-width="0" stroke-linecap="round" stroke-linejoin="round" x1="7.9" y1="385.4" x2="14.3" y2="385.4"/>
	
		<line fill="none" stroke="#555555" stroke-width="0" stroke-linecap="round" stroke-linejoin="round" x1="7.9" y1="395.7" x2="14.3" y2="395.7"/>
	
		<line fill="none" stroke="#555555" stroke-width="0" stroke-linecap="round" stroke-linejoin="round" x1="7.9" y1="393.2" x2="14.3" y2="393.2"/>
	
		<line fill="none" stroke="#555555" stroke-width="0" stroke-linecap="round" stroke-linejoin="round" x1="7.9" y1="388" x2="14.3" y2="388"/>
	
		<line fill="none" stroke="#555555" stroke-width="0" stroke-linecap="round" stroke-linejoin="round" x1="7.9" y1="377.7" x2="16.8" y2="377.7"/>
	
		<line fill="none" stroke="#555555" stroke-width="0" stroke-linecap="round" stroke-linejoin="round" x1="7.9" y1="390.6" x2="15.4" y2="390.6"/>
	
		<line fill="none" stroke="#555555" stroke-width="0" stroke-linecap="round" stroke-linejoin="round" x1="71.5" y1="359.8" x2="65.9" y2="359.8"/>
	
		<line fill="none" stroke="#555555" stroke-width="0" stroke-linecap="round" stroke-linejoin="round" x1="71.5" y1="369.7" x2="65.9" y2="369.7"/>
	
		<line fill="none" stroke="#555555" stroke-width="0" stroke-linecap="round" stroke-linejoin="round" x1="71.5" y1="350.1" x2="65.9" y2="350.1"/>
	
		<line fill="none" stroke="#555555" stroke-width="0" stroke-linecap="round" stroke-linejoin="round" x1="71.5" y1="364.7" x2="65.9" y2="364.7"/>
	
		<line fill="none" stroke="#555555" stroke-width="0" stroke-linecap="round" stroke-linejoin="round" x1="71.5" y1="374.5" x2="65.9" y2="374.5"/>
	
		<line fill="none" stroke="#555555" stroke-width="0" stroke-linecap="round" stroke-linejoin="round" x1="71.5" y1="394.2" x2="65.9" y2="394.2"/>
	
		<line fill="none" stroke="#555555" stroke-width="0" stroke-linecap="round" stroke-linejoin="round" x1="71.5" y1="389.2" x2="65.9" y2="389.2"/>
	
		<line fill="none" stroke="#555555" stroke-width="0" stroke-linecap="round" stroke-linejoin="round" x1="71.5" y1="384.5" x2="65.9" y2="384.5"/>
	
		<line fill="none" stroke="#555555" stroke-width="0" stroke-linecap="round" stroke-linejoin="round" x1="71.5" y1="379.5" x2="64.8" y2="379.5"/>
	
		<line fill="none" stroke="#555555" stroke-width="0" stroke-linecap="round" stroke-linejoin="round" x1="71.5" y1="354.9" x2="63.6" y2="354.9"/>
	
		<line fill="none" stroke="#555555" stroke-width="0" stroke-linecap="round" stroke-linejoin="round" x1="71.5" y1="404" x2="63.6" y2="404"/>
	
		<line fill="none" stroke="#555555" stroke-width="0" stroke-linecap="round" stroke-linejoin="round" x1="71.5" y1="399.1" x2="65.9" y2="399.1"/>
	
		<line fill="none" stroke="#555555" stroke-width="0" stroke-linecap="round" stroke-linejoin="round" x1="71.5" y1="51.4" x2="65.9" y2="51.4"/>
	
		<line fill="none" stroke="#555555" stroke-width="0" stroke-linecap="round" stroke-linejoin="round" x1="7.9" y1="398.3" x2="14.3" y2="398.3"/>
	
		<line fill="none" stroke="#555555" stroke-width="0" stroke-linecap="round" stroke-linejoin="round" x1="7.9" y1="400.9" x2="14.3" y2="400.9"/>
	
		<line fill="none" stroke="#555555" stroke-width="0" stroke-linecap="round" stroke-linejoin="round" x1="7.9" y1="403.5" x2="16.8" y2="403.5"/>
	<path fill="none" stroke="#D6D6D6" stroke-width="0" stroke-linecap="round" stroke-linejoin="round" d="M41.1,419.1
		c0.4,0,0.6-0.1,0.9-0.2"/>
</g>
</svg>
