<?xml version="1.0" encoding="utf-8"?>
<!-- Generator: Adobe Illustrator 14.0.0, SVG Export Plug-In . SVG Version: 6.00 Build 43363)  -->
<!DOCTYPE svg PUBLIC "-//W3C//DTD SVG 1.1//EN" "http://www.w3.org/Graphics/SVG/1.1/DTD/svg11.dtd">
<svg version="1.1" id="Layer_1" xmlns="http://www.w3.org/2000/svg" xmlns:xlink="http://www.w3.org/1999/xlink" x="0px" y="0px"
	 width="125px" height="29px" viewBox="0 0 125 29" enable-background="new 0 0 125 29" xml:space="preserve">
<g>

		
	<path fill="#EAEAEA" d="M118.4,6.007c0-3.65-1.6-5.426-4.7-5.426H11.3c-3.2,0-4.7,1.776-4.7,5.426v17.464
		c0,3.552,1.5,5.328,4.7,5.328h102.4c3.1,0,4.7-1.776,4.7-5.328V6.007z M33,4.824c0.1,0.197,0.2,0.395,0.2,0.69
		c0.4,1.085,0.4,2.171,0,3.256c0,0.197,0,0.197-0.1,0.296c0.7,0.691,1.1,1.579,1.3,2.565c0.1,0.296,0.1,0.493,0.1,0.592
		c0,1.184-0.3,2.368-0.9,3.256c-0.1,0.198-0.4,0.395-0.5,0.592c-0.4,0.493-0.9,0.987-1.5,1.184c-0.6,0.395-1.1,0.79-1.4,1.283
		c-0.2,0-0.2,0.099-0.3,0.197c-0.8,0.79-1.2,1.579-1.2,2.369c-0.2,0.296-0.3,0.197-0.7-0.494c-0.3-0.493-0.6-0.69-1-0.493
		c-0.5,0.098-0.9-0.296-1.2-0.987c-0.3-0.592-0.6-1.085-1.3-1.579c-0.3,0.099-0.6,0-1-0.197c0,0.197-0.1,0.197-0.3,0.395
		c-0.5,0.395-0.7,0.79-0.4,1.184c0.2,0.395,0.101,0.789-0.6,1.381c-0.7,0.395-1.1,1.283-1.3,2.368
		c-0.3,1.184-0.601,1.875-1.101,1.875c-0.5,0.099-0.899,0.69-1.1,1.677c-0.3,0.888-0.4,1.381-0.5,1.283
		c-0.7-2.072-1.5-3.256-2.8-3.651c-1.101-0.295-2-0.493-2.5-0.789c-1.3-0.592-2.3-1.677-2.8-2.96c-0.5-1.382-0.5-2.565,0.2-3.848
		c0.101-0.099,0.2-0.296,0.3-0.494c-1-0.888-1.6-2.071-1.7-3.354c-0.2-1.48,0.2-2.763,1.2-3.749c0.8-0.888,1.8-1.381,2.9-1.678
		c0.2,0,0.4,0,0.6,0c0.8,0,1.4,0.099,2.1,0.296c0-0.296-0.1-0.592-0.2-0.79c-0.1-1.48,0.4-2.763,1.3-3.947
		c0.9-1.184,2.101-1.776,3.5-1.776c1.2-0.099,2.2,0.197,3.2,0.888c0.2,0.099,0.4,0.198,0.5,0.395c0.5,0.395,0.8,0.79,1,1.283
		c0.5-0.493,1.1-0.79,1.7-0.987c1.4-0.592,2.7-0.493,4,0.197C31.7,3.047,32.5,3.837,33,4.824z"/>
	
		<radialGradient id="SVGID_1_" cx="1201.6431" cy="-26750.0586" r="819.2129" gradientTransform="matrix(0.0145 0.0083 -0.0084 0.0143 -212.4853 377.4726)" gradientUnits="userSpaceOnUse">
		<stop  offset="0" style="stop-color:#F9CDBA"/>
		<stop  offset="0.6353" style="stop-color:#E30613"/>
		<stop  offset="1" style="stop-color:#C6452C"/>
	</radialGradient>
	<path fill="url(#SVGID_1_)" d="M32,5.317c0.2,0.197,0.3,0.395,0.4,0.69c0,0.395-0.101,0.691-0.3,1.085s-0.4,0.592-0.8,0.691
		l-0.1,0.099c0.6,0.099,1.2,0.395,1.6,0.888C32.9,8.869,33,8.968,33.1,9.066c0.1-0.099,0.1-0.099,0.1-0.296
		c0.4-1.085,0.4-2.171,0-3.256c0-0.296-0.1-0.493-0.2-0.69c-0.5-0.987-1.3-1.776-2.3-2.27c-1.3-0.69-2.6-0.789-4-0.197
		c-0.6,0.197-1.2,0.494-1.7,0.987c-0.5,0.395-1,0.987-1.3,1.776c0,0.099-0.2,0.296-0.2,0.592c0.2,0.099,0.5,0.295,0.8,0.395
		c0.2,0.099,0.4,0.197,0.5,0.395c0.7,0.691,1.2,1.381,1.4,2.171c0.2,0,0.3-0.198,0.4-0.198c-0.1-0.296-0.1-0.493-0.1-0.789
		c0.1,0.197,0.3,0.395,0.5,0.592c0.6-0.296,1.3-0.592,2-0.592c0.5-0.099,0.9-0.099,1.2,0c0-0.198,0-0.296,0-0.493
		c-0.1-0.395,0-0.691,0.2-0.987c0.2-0.395,0.5-0.691,0.8-0.79C31.5,5.218,31.7,5.218,32,5.317z M29,6.501
		c-0.3,0.197-0.5,0.197-0.8,0c-0.2-0.197-0.3-0.296-0.3-0.69c0-0.296,0.1-0.592,0.3-0.987c0.2-0.296,0.4-0.592,0.8-0.79
		c0.2-0.197,0.5-0.197,0.7,0C30,4.133,30,4.331,30.1,4.725c0,0.296-0.1,0.69-0.3,0.987C29.6,6.106,29.4,6.304,29,6.501z"/>
	
		<radialGradient id="SVGID_2_" cx="6.1025" cy="29.2949" r="813.9879" gradientTransform="matrix(0.0012 6.906723e-004 -0.0011 0.0018 -219.477 381.1211)" gradientUnits="userSpaceOnUse">
		<stop  offset="0" style="stop-color:#FFFFFF"/>
		<stop  offset="0.8549" style="stop-color:#FFFFFF"/>
		<stop  offset="1" style="stop-color:#D4D4D4"/>
	</radialGradient>
	<path fill="url(#SVGID_2_)" d="M28.2,6.501c0.3,0.197,0.5,0.197,0.8,0c0.4-0.197,0.6-0.395,0.8-0.789
		c0.2-0.296,0.3-0.691,0.3-0.987C30,4.331,30,4.133,29.7,4.034c-0.2-0.197-0.5-0.197-0.7,0c-0.4,0.197-0.6,0.493-0.8,0.79
		c-0.2,0.395-0.3,0.69-0.3,0.987C27.9,6.205,28,6.304,28.2,6.501z M29,5.218c0,0-0.1-0.099-0.1-0.197c0-0.197,0-0.296,0.1-0.296
		c0-0.198,0.2-0.198,0.2-0.296c0.1-0.098,0.2-0.098,0.3-0.098c0.1,0.098,0.2,0.197,0.2,0.395c0,0,0,0.099-0.1,0.296
		c-0.1,0.099-0.2,0.197-0.2,0.197C29.2,5.317,29.2,5.218,29,5.218z"/>
	<path d="M28.9,5.021c0,0.099,0.1,0.197,0.1,0.197c0.2,0,0.2,0.099,0.4,0c0,0,0.1-0.099,0.2-0.197c0.1-0.197,0.1-0.296,0.1-0.296
		c0-0.198-0.1-0.296-0.2-0.395c-0.1,0-0.2,0-0.3,0.098c0,0.099-0.2,0.099-0.2,0.296C28.9,4.725,28.9,4.824,28.9,5.021z"/>
	
		<radialGradient id="SVGID_3_" cx="6.1006" cy="29.2925" r="814.7782" gradientTransform="matrix(0.0012 6.906723e-004 -0.0011 0.0018 -217.1769 382.5024)" gradientUnits="userSpaceOnUse">
		<stop  offset="0" style="stop-color:#FFFFFF"/>
		<stop  offset="0.8549" style="stop-color:#FFFFFF"/>
		<stop  offset="1" style="stop-color:#D4D4D4"/>
	</radialGradient>
	<path fill="url(#SVGID_3_)" d="M32.4,6.007C32.3,5.712,32.2,5.514,32,5.317c-0.3-0.099-0.5-0.099-0.8,0.098
		c-0.3,0.099-0.6,0.395-0.8,0.79c-0.2,0.296-0.3,0.592-0.2,0.987c0,0.197,0,0.295,0,0.493c0.4,0,0.7,0,1,0.197l0.1-0.099
		c0.4-0.099,0.601-0.296,0.8-0.691S32.4,6.402,32.4,6.007z M31.5,5.811c0.2-0.099,0.2-0.099,0.3-0.099
		C31.9,5.811,32,5.909,31.9,6.007c0.1,0.198,0,0.198,0,0.296C31.8,6.501,31.7,6.501,31.5,6.6c0,0.099-0.1,0.099-0.2,0
		c-0.1-0.099-0.1-0.099-0.1-0.197c0-0.197,0-0.296,0-0.395C31.3,5.811,31.4,5.811,31.5,5.811z"/>
	<path d="M31.8,5.712c-0.1,0-0.1,0-0.3,0.099c-0.1,0-0.2,0-0.3,0.197c0,0.099,0,0.198,0,0.395c0,0.099,0,0.099,0.1,0.197
		c0.101,0.099,0.2,0.099,0.2,0c0.2-0.099,0.3-0.099,0.4-0.296c0-0.099,0.1-0.099,0-0.296C32,5.909,31.9,5.811,31.8,5.712z"/>
	
		<radialGradient id="SVGID_4_" cx="-5909.7012" cy="-26546.2832" r="819.1927" gradientTransform="matrix(0.0117 0.0115 -0.0117 0.0115 -210.0113 384.719)" gradientUnits="userSpaceOnUse">
		<stop  offset="0" style="stop-color:#88B0D1"/>
		<stop  offset="0.6353" style="stop-color:#5B94BE"/>
		<stop  offset="1" style="stop-color:#687A8A"/>
	</radialGradient>
	<path fill="url(#SVGID_4_)" d="M31.2,7.882c-0.3-0.197-0.6-0.197-1-0.197c-0.3-0.099-0.7-0.099-1.2,0c-0.7,0-1.4,0.296-2,0.592
		c-0.1,0-0.3,0.098-0.4,0.197c-0.1,0-0.2,0.198-0.4,0.198c-0.3,0.296-0.6,0.493-0.8,0.789c-0.4,0.395-0.8,1.184-1.4,2.171
		c-0.1,0.099-0.2,0.296-0.3,0.296c0,0.197-0.2,0.296-0.3,0.493c-0.2,0-0.2,0.198-0.4,0.198c-0.1,0-0.2,0.099-0.3,0.197
		c-0.3,0.099-0.7,0.296-1,0.296c-0.5,0.197-1.2,0.296-2,0.296c0,0,0.3,0.197,1.2,0.79c0.3,0.098,0.5,0.395,0.7,0.493
		c0.4,0.395,0.6,0.592,0.6,0.888c-0.1,0.493,0.3,0.986,1.3,1.48c0,0,0.1,0,0.2,0.099l0,0c0.3,0.098,0.5,0.296,0.8,0.395
		c0.7,0.493,1,0.987,1.3,1.579c0.3,0.69,0.7,1.085,1.2,0.987c0.4-0.197,0.7,0,1,0.493c0.4,0.69,0.5,0.79,0.7,0.494
		c0-0.79,0.4-1.579,1.2-2.369c0.1-0.098,0.1-0.197,0.3-0.197c0.3-0.494,0.8-0.888,1.4-1.283c0.6-0.197,1.1-0.69,1.5-1.184
		c0.1-0.198,0.4-0.395,0.5-0.592c0.6-0.888,0.9-2.072,0.9-3.256c0-0.099,0-0.296-0.1-0.592c-0.2-0.987-0.601-1.875-1.3-2.565
		c-0.1-0.099-0.2-0.198-0.3-0.296C32.4,8.277,31.8,7.981,31.2,7.882z M29.4,11.928c-0.2-0.099-0.2-0.296-0.2-0.69
		c0-0.296,0.3-0.592,0.5-0.889c0.3-0.296,0.6-0.493,1-0.591c0.3-0.099,0.6,0,0.8,0.197c0.2,0.198,0.2,0.494,0.1,0.79
		c-0.1,0.395-0.2,0.69-0.6,0.888c-0.2,0.296-0.5,0.493-0.8,0.493C29.8,12.224,29.5,12.125,29.4,11.928z M32.5,11.73
		c0.3-0.099,0.5-0.099,0.7,0.197c0.2,0.099,0.3,0.296,0.2,0.691c0,0.295-0.2,0.592-0.5,0.888c-0.2,0.198-0.601,0.395-0.9,0.592
		c-0.4,0-0.6,0-0.8-0.198C31,13.704,31,13.408,31,13.112c0.1-0.395,0.3-0.691,0.5-0.987C31.8,11.928,32.2,11.73,32.5,11.73z
		 M30,15.479c0.1,0.099,0.2,0.198,0.4,0.198c-1.4,0.197-2.2,0-2.7-0.592c-0.2-0.395-0.4-0.79-0.5-1.283c0-0.296,0.1-0.69,0.2-1.085
		c0.5,1.085,1.3,1.973,2.399,2.664C29.9,15.381,29.9,15.381,30,15.479z"/>
	
		<radialGradient id="SVGID_5_" cx="6.0977" cy="29.2949" r="815.857" gradientTransform="matrix(0.001 9.866747e-004 -0.0015 0.0015 -217.7003 387.4706)" gradientUnits="userSpaceOnUse">
		<stop  offset="0" style="stop-color:#FFFFFF"/>
		<stop  offset="0.8549" style="stop-color:#FFFFFF"/>
		<stop  offset="1" style="stop-color:#D4D4D4"/>
	</radialGradient>
	<path fill="url(#SVGID_5_)" d="M29.2,11.237c0,0.395,0,0.591,0.2,0.69c0.1,0.197,0.399,0.296,0.8,0.197c0.3,0,0.6-0.197,0.8-0.493
		c0.4-0.198,0.5-0.493,0.6-0.888c0.1-0.296,0.1-0.592-0.1-0.79c-0.2-0.197-0.5-0.296-0.8-0.197c-0.4,0.098-0.7,0.295-1,0.591
		C29.5,10.645,29.2,10.941,29.2,11.237z M30.9,10.25c0.1-0.099,0.2,0,0.3,0c0,0.098,0,0.197,0,0.395c0,0,0,0.099-0.2,0.296
		c0,0-0.1,0.099-0.3,0.198c-0.1,0-0.2-0.099-0.2-0.198c-0.1,0-0.1-0.099-0.1-0.197s0.1-0.296,0.1-0.296
		C30.7,10.25,30.7,10.25,30.9,10.25z"/>
	<path d="M31.2,10.25c-0.1,0-0.2-0.099-0.3,0c-0.2,0-0.2,0-0.4,0.197c0,0-0.1,0.197-0.1,0.296s0,0.197,0.1,0.197
		c0,0.099,0.1,0.198,0.2,0.198c0.2-0.099,0.3-0.198,0.3-0.198c0.2-0.197,0.2-0.296,0.2-0.296C31.2,10.448,31.2,10.349,31.2,10.25z"
		/>
	
		<radialGradient id="SVGID_6_" cx="6.0977" cy="29.2935" r="816.647" gradientTransform="matrix(0.001 9.866747e-004 -0.0015 0.0015 -215.8504 389.2963)" gradientUnits="userSpaceOnUse">
		<stop  offset="0" style="stop-color:#FFFFFF"/>
		<stop  offset="0.8549" style="stop-color:#FFFFFF"/>
		<stop  offset="1" style="stop-color:#D4D4D4"/>
	</radialGradient>
	<path fill="url(#SVGID_6_)" d="M33.2,11.928c-0.2-0.296-0.4-0.296-0.7-0.197c-0.3,0-0.7,0.197-1,0.395
		c-0.2,0.296-0.4,0.592-0.5,0.987c0,0.296,0,0.592,0.2,0.789c0.2,0.198,0.4,0.198,0.8,0.198c0.3-0.198,0.7-0.395,0.9-0.592
		c0.3-0.296,0.5-0.592,0.5-0.888C33.5,12.224,33.4,12.026,33.2,11.928z M33,12.125c0,0.099,0.1,0.296,0,0.296
		c0,0.198,0,0.296,0,0.296c-0.1,0.197-0.3,0.197-0.5,0.197c0,0.099-0.1,0-0.3,0c0-0.099,0-0.197,0-0.295
		c0-0.198,0.2-0.198,0.3-0.395c0,0,0.1-0.099,0.2-0.099C32.9,12.125,32.9,12.125,33,12.125z"/>
	<path d="M33,12.421c0.1,0,0-0.197,0-0.296c-0.1,0-0.1,0-0.3,0c-0.1,0-0.2,0.099-0.2,0.099c-0.1,0.197-0.3,0.197-0.3,0.395
		c0,0.099,0,0.197,0,0.295c0.2,0,0.3,0.099,0.3,0c0.2,0,0.4,0,0.5-0.197C33,12.717,33,12.619,33,12.421z"/>
	<path fill="#698AA5" d="M30.4,15.677c-0.2,0-0.3-0.099-0.4-0.198c-0.1-0.099-0.1-0.099-0.2-0.099c-0.1,0.198-0.1,0.198-0.1,0.198
		c-0.1,0.099-0.2,0.099-0.2,0.099c-0.3-0.296-0.6-0.592-0.9-0.888c-0.4-0.296-0.9-0.69-1.4-0.987c0.1,0.493,0.3,0.888,0.5,1.283
		C28.2,15.677,29,15.874,30.4,15.677z"/>
	
		<radialGradient id="SVGID_7_" cx="6.1021" cy="29.293" r="816.3901" gradientTransform="matrix(0.0023 0.0023 -0.0023 0.0023 -219.9102 389.6201)" gradientUnits="userSpaceOnUse">
		<stop  offset="0" style="stop-color:#FFFFFF"/>
		<stop  offset="0.8549" style="stop-color:#FFFFFF"/>
		<stop  offset="1" style="stop-color:#D4D4D4"/>
	</radialGradient>
	<path fill="url(#SVGID_7_)" d="M29.5,15.677c0,0,0.1,0,0.2-0.099c0,0,0,0,0.1-0.198c-1.1-0.69-1.899-1.579-2.399-2.664
		c-0.101,0.395-0.2,0.789-0.2,1.085c0.5,0.296,1,0.691,1.4,0.987C28.9,15.085,29.2,15.381,29.5,15.677z"/>
	
		<radialGradient id="SVGID_8_" cx="14673.1758" cy="-22445.2852" r="819.1996" gradientTransform="matrix(0.0167 0 0 0.0165 -224.6579 372.6992)" gradientUnits="userSpaceOnUse">
		<stop  offset="0" style="stop-color:#F9CDBA"/>
		<stop  offset="0.6353" style="stop-color:#E30613"/>
		<stop  offset="1" style="stop-color:#C6452C"/>
	</radialGradient>
	<path fill="url(#SVGID_8_)" d="M24,2.061c-0.1-0.197-0.3-0.296-0.5-0.395c-1-0.69-2-0.986-3.2-0.888c-1.399,0-2.6,0.592-3.5,1.776
		C15.9,3.738,15.4,5.021,15.5,6.501c0.1,0.197,0.2,0.493,0.2,0.79c0.4,0.197,0.8,0.395,1.2,0.69c0.1,0,0.1,0,0.1,0
		c0.2-0.296,0.4-0.69,0.6-0.987C18.3,6.205,19,5.712,20,5.416c-0.2-0.098-0.3-0.197-0.5-0.395c-0.1-0.296-0.2-0.592-0.2-0.987
		s0.101-0.789,0.2-0.987c0.2-0.296,0.5-0.493,0.7-0.493c0.3,0,0.5,0.197,0.7,0.493c0.1,0.198,0.3,0.592,0.3,0.987
		S21,4.725,20.9,5.021C20.8,5.12,20.7,5.218,20.7,5.218c0.1,0,0.2,0,0.3,0c0.5,0,1,0,1.4,0.099c0-0.099-0.2-0.099-0.2-0.296
		c-0.2-0.296-0.3-0.592-0.3-0.987s0.1-0.789,0.3-0.987c0.2-0.296,0.4-0.395,0.7-0.395c0.2,0,0.5,0.099,0.6,0.395
		c0.2,0.198,0.3,0.592,0.3,0.987s-0.1,0.691-0.3,0.987c-0.1,0.197-0.3,0.395-0.4,0.493c0.1,0,0.3,0.099,0.4,0.198
		c0-0.296,0.2-0.494,0.2-0.592C24,4.331,24.5,3.738,25,3.344C24.8,2.851,24.5,2.456,24,2.061z"/>
	
		<radialGradient id="SVGID_9_" cx="6.1045" cy="29.2935" r="812.0572" gradientTransform="matrix(0.0014 0 0 0.0021 -225.7399 379.7023)" gradientUnits="userSpaceOnUse">
		<stop  offset="0" style="stop-color:#FFFFFF"/>
		<stop  offset="0.8549" style="stop-color:#FFFFFF"/>
		<stop  offset="1" style="stop-color:#D4D4D4"/>
	</radialGradient>
	<path fill="url(#SVGID_9_)" d="M23.5,3.047c-0.1-0.296-0.4-0.395-0.6-0.395c-0.3,0-0.5,0.099-0.7,0.395
		C22,3.245,21.9,3.64,21.9,4.034s0.1,0.691,0.3,0.987c0,0.197,0.2,0.197,0.2,0.296c0.3,0,0.5,0.098,0.7,0.197
		c0.1-0.099,0.3-0.296,0.4-0.493c0.2-0.296,0.3-0.592,0.3-0.987S23.7,3.245,23.5,3.047z M22.7,3.245c0-0.198,0.1-0.198,0.2-0.198
		c0.1,0,0.2,0,0.3,0.198c0,0,0,0.099,0,0.296s0,0.197,0,0.296c-0.1,0.197-0.2,0.197-0.3,0.197c-0.101,0-0.2,0-0.2-0.197
		c-0.1-0.099-0.2-0.099-0.2-0.296S22.6,3.245,22.7,3.245z"/>
	<path d="M22.9,3.047c-0.101,0-0.2,0-0.2,0.198c-0.1,0-0.2,0.099-0.2,0.296s0.1,0.197,0.2,0.296c0,0.197,0.1,0.197,0.2,0.197
		c0.1,0,0.2,0,0.3-0.197c0-0.099,0-0.099,0-0.296s0-0.296,0-0.296C23.1,3.047,23,3.047,22.9,3.047z"/>
	
		<radialGradient id="SVGID_10_" cx="14763.0371" cy="-22582.998" r="819.2069" gradientTransform="matrix(0.0166 0 0 0.0164 -223.8836 377.0601)" gradientUnits="userSpaceOnUse">
		<stop  offset="0" style="stop-color:#88B0D1"/>
		<stop  offset="0.6353" style="stop-color:#5B94BE"/>
		<stop  offset="1" style="stop-color:#687A8A"/>
	</radialGradient>
	<path fill="url(#SVGID_10_)" d="M23.5,5.712c-0.1-0.099-0.3-0.198-0.4-0.198c-0.2-0.099-0.4-0.197-0.7-0.197
		C22,5.218,21.5,5.218,21,5.218c-0.1,0-0.2,0-0.3,0c-0.3,0-0.5,0.099-0.7,0.197c-1,0.296-1.7,0.79-2.4,1.579
		c-0.2,0.296-0.4,0.691-0.6,0.987c-0.5,0.888-0.6,1.875-0.6,2.96c0.1,0.198,0.1,0.592,0.2,1.085c0,0.099,0.1,0.197,0.1,0.395
		c0.1,0.198,0.1,0.493,0.2,0.79c0,0.098,0,0.197,0.1,0.197c0,0.197,0,0.395,0,0.493c0.2,0.099,0.3,0.198,0.4,0.198
		c0.6,0.295,1.1,0.592,1.5,1.085c0.399,0.295,0.8,0.493,1.1,0.789c0.2,0.099,0.4,0.197,0.5,0.296c0.2,0.099,0.3,0.099,0.4,0.197
		c0.899,0.592,1.8,0.691,2.6,0.592c-1-0.494-1.4-0.987-1.3-1.48c0-0.296-0.2-0.494-0.6-0.888c-0.2-0.099-0.4-0.395-0.7-0.493
		c-0.9-0.592-1.2-0.79-1.2-0.79c0.8,0,1.5-0.099,2-0.296c-0.3,0-0.6-0.198-0.8-0.493c-0.3-0.198-0.5-0.494-0.8-0.888
		c0.2,0.098,0.4,0.197,0.5,0.197c0.6,0.197,1.2,0.197,1.7,0.197c0.4,0,0.9,0,1.4-0.197c0.1,0,0.2-0.197,0.3-0.296
		c0.6-0.987,1-1.776,1.4-2.171c0.2-0.296,0.5-0.493,0.8-0.789c-0.2-0.79-0.7-1.48-1.4-2.171c-0.1-0.197-0.3-0.296-0.5-0.395
		C24,6.007,23.7,5.811,23.5,5.712z M21,6.994c0.3,0,0.5,0.198,0.7,0.493l0.1,0.198C21.9,7.784,21.9,7.981,21.9,7.981
		C22,8.178,22,8.277,22,8.474c0,0,0,0.198,0,0.296c-0.1,0.098-0.1,0.197-0.1,0.395c-0.101,0-0.2,0.099-0.2,0.296
		c-0.2,0.197-0.4,0.395-0.7,0.395c-0.1,0-0.2,0-0.3-0.098c-0.2,0-0.2-0.099-0.3-0.296C20.2,9.165,20,8.771,20,8.474
		c0-0.099,0-0.197,0-0.296c0.1-0.197,0.2-0.395,0.3-0.493c0-0.099,0-0.198,0.101-0.198C20.5,7.192,20.8,6.994,21,6.994z M23.7,6.994
		c0.2,0,0.4,0.198,0.6,0.493c0.2,0.198,0.3,0.592,0.3,0.987s-0.1,0.691-0.3,0.987c-0.2,0.296-0.399,0.493-0.6,0.493
		c-0.3,0-0.5-0.197-0.7-0.493c-0.2-0.296-0.3-0.592-0.3-0.987s0.1-0.789,0.3-0.987C23.2,7.192,23.4,6.994,23.7,6.994z"/>
	
		<radialGradient id="SVGID_11_" cx="6.1001" cy="29.2939" r="812.6272" gradientTransform="matrix(0.0014 0 0 0.0021 -227.54 384.0924)" gradientUnits="userSpaceOnUse">
		<stop  offset="0" style="stop-color:#FFFFFF"/>
		<stop  offset="0.8549" style="stop-color:#FFFFFF"/>
		<stop  offset="1" style="stop-color:#D4D4D4"/>
	</radialGradient>
	<path fill="url(#SVGID_11_)" d="M21.7,7.487c-0.2-0.295-0.4-0.493-0.7-0.493c-0.2,0-0.5,0.198-0.6,0.493
		c-0.101,0-0.101,0.099-0.101,0.198c-0.1,0.099-0.2,0.296-0.3,0.493c0,0.099,0,0.197,0,0.296c0,0.296,0.2,0.691,0.4,0.987
		c0.1,0.197,0.1,0.296,0.3,0.296c0.1,0.098,0.2,0.098,0.3,0.098c0.3,0,0.5-0.197,0.7-0.395c0-0.197,0.1-0.296,0.2-0.296
		c0-0.197,0-0.296,0.1-0.395c0-0.099,0-0.296,0-0.296c0-0.197,0-0.296-0.1-0.493c0,0,0-0.197-0.101-0.296L21.7,7.487z M20.8,8.178
		c-0.1-0.099-0.1-0.197-0.1-0.197c0-0.099,0-0.197,0.1-0.296c0,0,0,0,0-0.099C20.9,7.487,21,7.487,21,7.487c0.2,0,0.3,0,0.3,0.099
		C21.4,7.685,21.4,7.685,21.4,7.685c0,0.099,0,0.197,0,0.296c0,0,0,0,0,0.099s0,0.099-0.101,0.198c0,0-0.1,0.098-0.3,0.098
		c0,0-0.1-0.098-0.2-0.098C20.8,8.178,20.8,8.178,20.8,8.178z"/>
	<path d="M20.7,7.981c0,0,0,0.099,0.1,0.197c0,0,0,0,0,0.099c0.101,0,0.2,0.098,0.2,0.098c0.2,0,0.3-0.098,0.3-0.098
		C21.4,8.178,21.4,8.178,21.4,8.08s0-0.099,0-0.099c0-0.099,0-0.197,0-0.296c0,0,0,0-0.101-0.099c0-0.099-0.1-0.099-0.3-0.099
		c0,0-0.1,0-0.2,0.099c0,0.099,0,0.099,0,0.099C20.7,7.784,20.7,7.882,20.7,7.981z"/>
	
		<radialGradient id="SVGID_12_" cx="6.1001" cy="29.2925" r="813.4334" gradientTransform="matrix(0.0014 0 0 0.0021 -224.9401 384.191)" gradientUnits="userSpaceOnUse">
		<stop  offset="0" style="stop-color:#FFFFFF"/>
		<stop  offset="0.8549" style="stop-color:#FFFFFF"/>
		<stop  offset="1" style="stop-color:#D4D4D4"/>
	</radialGradient>
	<path fill="url(#SVGID_12_)" d="M24.3,7.487c-0.2-0.295-0.399-0.493-0.6-0.493c-0.3,0-0.5,0.198-0.7,0.493
		c-0.2,0.198-0.3,0.592-0.3,0.987s0.1,0.691,0.3,0.987c0.2,0.296,0.4,0.493,0.7,0.493c0.2,0,0.4-0.197,0.6-0.493
		c0.2-0.296,0.3-0.592,0.3-0.987S24.5,7.685,24.3,7.487z M24,7.685c0,0,0,0.099,0,0.296c0,0.099,0,0.197,0,0.296
		c-0.1,0.098-0.2,0.197-0.3,0.197c-0.1,0-0.2-0.099-0.2-0.197c-0.1-0.099-0.1-0.198-0.1-0.296c0-0.197,0-0.296,0.1-0.296
		c0-0.198,0.1-0.198,0.2-0.198C23.8,7.487,23.9,7.487,24,7.685z"/>
	<path d="M24,7.981c0-0.197,0-0.296,0-0.296c-0.1-0.198-0.2-0.198-0.3-0.198c-0.1,0-0.2,0-0.2,0.198c-0.1,0-0.1,0.099-0.1,0.296
		c0,0.099,0,0.197,0.1,0.296c0,0.098,0.1,0.197,0.2,0.197c0.1,0,0.2-0.099,0.3-0.197C24,8.178,24,8.08,24,7.981z"/>
	
		<radialGradient id="SVGID_13_" cx="6.0981" cy="29.2939" r="811.4046" gradientTransform="matrix(0.0014 0 0 0.0021 -228.3901 379.6031)" gradientUnits="userSpaceOnUse">
		<stop  offset="0" style="stop-color:#FFFFFF"/>
		<stop  offset="0.8549" style="stop-color:#FFFFFF"/>
		<stop  offset="1" style="stop-color:#D4D4D4"/>
	</radialGradient>
	<path fill="url(#SVGID_13_)" d="M20.9,3.047c-0.2-0.296-0.4-0.493-0.7-0.493c-0.2,0-0.5,0.197-0.7,0.493
		c-0.1,0.198-0.2,0.592-0.2,0.987s0.101,0.691,0.2,0.987c0.2,0.197,0.3,0.296,0.5,0.395c0.2-0.098,0.4-0.197,0.7-0.197
		c0,0,0.1-0.099,0.2-0.197c0.1-0.296,0.3-0.592,0.3-0.987S21,3.245,20.9,3.047z M19.9,3.541c0-0.197,0.1-0.296,0.1-0.395
		c0-0.099,0.2-0.099,0.3-0.099c0.101,0,0.2,0,0.2,0.099c0,0.099,0.1,0.197,0.1,0.395c0,0.099-0.1,0.197-0.1,0.296
		c0,0-0.1,0.099-0.2,0.099c-0.1,0-0.3-0.099-0.3-0.099C20,3.738,19.9,3.64,19.9,3.541z"/>
	<path d="M20,3.146c0,0.099-0.1,0.197-0.1,0.395c0,0.099,0.1,0.197,0.1,0.296c0,0,0.2,0.099,0.3,0.099c0.101,0,0.2-0.099,0.2-0.099
		c0-0.099,0.1-0.197,0.1-0.296c0-0.197-0.1-0.296-0.1-0.395c0-0.099-0.1-0.099-0.2-0.099C20.2,3.047,20,3.047,20,3.146z"/>
	
		<radialGradient id="SVGID_14_" cx="26485.8457" cy="-5207.6689" r="819.1914" gradientTransform="matrix(0.0118 -0.0116 0.0118 0.0116 -239.5182 379.0369)" gradientUnits="userSpaceOnUse">
		<stop  offset="0" style="stop-color:#F9CDBA"/>
		<stop  offset="0.6353" style="stop-color:#E30613"/>
		<stop  offset="1" style="stop-color:#C6452C"/>
	</radialGradient>
	<path fill="url(#SVGID_14_)" d="M17,7.981c0,0,0,0-0.1,0c-0.4-0.296-0.8-0.494-1.2-0.69c-0.7-0.198-1.3-0.296-2.1-0.296
		c-0.2,0-0.4,0-0.6,0c-1.1,0.296-2.1,0.79-2.9,1.678c-1,0.986-1.4,2.269-1.2,3.749c0.1,1.283,0.7,2.467,1.7,3.354
		c0.5-0.789,1.2-1.381,2-1.875c0.3,0,0.5-0.099,0.7-0.197c0.601-0.099,1.2-0.296,1.8-0.198c0.6-0.395,1.1-0.888,1.5-1.48
		c-0.1-0.493-0.1-0.888-0.2-1.085C16.4,9.855,16.5,8.869,17,7.981z M11.6,11.73c-0.2-0.296-0.5-0.592-0.5-0.987
		c0-0.296,0-0.592,0.2-0.691c0.101-0.197,0.4-0.295,0.8-0.197c0.3,0.099,0.6,0.296,0.9,0.592c0.3,0.197,0.4,0.493,0.5,0.79
		c0.1,0.395,0,0.69-0.2,0.888c-0.2,0.099-0.399,0.099-0.7,0.099C12.2,12.125,11.9,11.928,11.6,11.73z M14.9,8.474
		c0.3,0.296,0.5,0.691,0.5,0.987c0.1,0.296,0,0.592-0.101,0.79c-0.2,0.197-0.399,0.197-0.8,0.197c-0.3-0.099-0.7-0.296-1-0.494
		c-0.2-0.296-0.4-0.69-0.4-0.986c-0.1-0.296,0-0.592,0.1-0.79c0.2-0.197,0.4-0.197,0.7-0.099C14.3,8.178,14.7,8.277,14.9,8.474z"/>
	
		<radialGradient id="SVGID_15_" cx="6.1001" cy="29.2915" r="809.9368" gradientTransform="matrix(0.001 -9.866747e-004 0.0015 0.0015 -237.0853 386.6184)" gradientUnits="userSpaceOnUse">
		<stop  offset="0" style="stop-color:#FFFFFF"/>
		<stop  offset="0.8549" style="stop-color:#FFFFFF"/>
		<stop  offset="1" style="stop-color:#D4D4D4"/>
	</radialGradient>
	<path fill="url(#SVGID_15_)" d="M11.1,10.744c0,0.395,0.3,0.69,0.5,0.987c0.3,0.197,0.6,0.395,1,0.493c0.3,0,0.5,0,0.7-0.099
		c0.2-0.197,0.3-0.493,0.2-0.888c-0.1-0.296-0.2-0.592-0.5-0.79c-0.3-0.296-0.6-0.494-0.9-0.592c-0.4-0.098-0.7,0-0.8,0.197
		C11.1,10.152,11.1,10.448,11.1,10.744z M11.6,10.645c0-0.197,0-0.197,0-0.296c0.1-0.098,0.2-0.098,0.3-0.098c0.1,0,0.2,0,0.3,0.197
		c0.1,0,0.2,0.197,0.2,0.197c0,0.197,0,0.296-0.101,0.296c0,0.099-0.2,0.198-0.2,0.099c-0.2,0-0.3-0.099-0.4-0.099
		C11.6,10.744,11.6,10.645,11.6,10.645z"/>
	<path d="M11.6,10.349c0,0.099,0,0.099,0,0.296c0,0,0,0.099,0.1,0.296c0.1,0,0.2,0.099,0.4,0.099c0,0.099,0.2,0,0.2-0.099
		c0.101,0,0.101-0.099,0.101-0.296c0,0-0.101-0.197-0.2-0.197c-0.1-0.197-0.2-0.197-0.3-0.197C11.8,10.25,11.7,10.25,11.6,10.349z"
		/>
	
		<radialGradient id="SVGID_16_" cx="6.1001" cy="29.2949" r="810.4571" gradientTransform="matrix(0.001 -9.866747e-004 0.0015 0.0015 -235.1854 384.8426)" gradientUnits="userSpaceOnUse">
		<stop  offset="0" style="stop-color:#FFFFFF"/>
		<stop  offset="0.8549" style="stop-color:#FFFFFF"/>
		<stop  offset="1" style="stop-color:#D4D4D4"/>
	</radialGradient>
	<path fill="url(#SVGID_16_)" d="M15.4,9.461c0-0.296-0.2-0.69-0.5-0.987c-0.2-0.197-0.601-0.296-1-0.395
		c-0.3-0.099-0.5-0.099-0.7,0.099c-0.1,0.197-0.2,0.494-0.1,0.79c0,0.296,0.2,0.69,0.4,0.986c0.3,0.198,0.7,0.395,1,0.494
		c0.4,0,0.6,0,0.8-0.197C15.4,10.053,15.5,9.757,15.4,9.461z M14.3,8.968c0.101,0,0,0.197-0.1,0.197c0,0.099-0.1,0.099-0.3,0.099
		c0-0.099-0.101-0.099-0.3-0.197c0-0.099-0.1-0.198-0.1-0.296c-0.1-0.099-0.1-0.198,0-0.296c0.1,0,0.2,0,0.4,0c0,0,0.2,0,0.3,0.099
		C14.3,8.672,14.3,8.771,14.3,8.968z"/>
	<path d="M14.2,9.165c0.1,0,0.2-0.197,0.1-0.197c0-0.197,0-0.296-0.1-0.395c-0.1-0.099-0.3-0.099-0.3-0.099c-0.2,0-0.3,0-0.4,0
		c-0.1,0.099-0.1,0.198,0,0.296c0,0.098,0.1,0.197,0.1,0.296c0.2,0.099,0.3,0.099,0.3,0.197C14.1,9.264,14.2,9.264,14.2,9.165z"/>
	
		<radialGradient id="SVGID_17_" cx="6.1001" cy="29.2983" r="814.0967" gradientTransform="matrix(0.0033 0 0 0.0033 -227.3018 387.6109)" gradientUnits="userSpaceOnUse">
		<stop  offset="0" style="stop-color:#FFFFFF"/>
		<stop  offset="0.8549" style="stop-color:#FFFFFF"/>
		<stop  offset="1" style="stop-color:#D4D4D4"/>
	</radialGradient>
	<path fill="url(#SVGID_17_)" d="M20.6,11.928c-0.1,0-0.3-0.099-0.5-0.197c0.3,0.395,0.5,0.69,0.8,0.888c0.2,0,0.5,0,0.7,0
		c0.4-0.099,0.6-0.198,1-0.198c0.3,0,0.5,0,0.8,0c0.1-0.197,0.3-0.296,0.3-0.493c-0.5,0.197-1,0.197-1.4,0.197
		C21.8,12.125,21.2,12.125,20.6,11.928z"/>
	<path fill="#698AA5" d="M21.6,12.619c-0.2,0-0.5,0-0.7,0c0.2,0.295,0.5,0.493,0.8,0.493s0.7-0.198,1-0.296
		c0.1-0.098,0.2-0.197,0.3-0.197c0.2,0,0.2-0.198,0.4-0.198c-0.3,0-0.5,0-0.8,0C22.2,12.421,22,12.52,21.6,12.619z"/>
	
		<radialGradient id="SVGID_18_" cx="6.1001" cy="29.291" r="813.6686" gradientTransform="matrix(0.0029 0.0017 -0.0017 0.0029 -220.8231 384.8141)" gradientUnits="userSpaceOnUse">
		<stop  offset="0" style="stop-color:#FFFFFF"/>
		<stop  offset="0.8549" style="stop-color:#FFFFFF"/>
		<stop  offset="1" style="stop-color:#D4D4D4"/>
	</radialGradient>
	<path fill="url(#SVGID_18_)" d="M26.5,7.685c0,0.296,0,0.493,0.1,0.789c0.1-0.099,0.3-0.197,0.4-0.197
		C26.8,8.08,26.6,7.882,26.5,7.685z"/>
	
		<radialGradient id="SVGID_19_" cx="6.1006" cy="29.2915" r="811.5931" gradientTransform="matrix(0.0024 -0.0024 0.0024 0.0024 -233.951 388.9023)" gradientUnits="userSpaceOnUse">
		<stop  offset="0" style="stop-color:#FFFFFF"/>
		<stop  offset="0.8549" style="stop-color:#FFFFFF"/>
		<stop  offset="1" style="stop-color:#D4D4D4"/>
	</radialGradient>
	<path fill="url(#SVGID_19_)" d="M16.7,12.421c0-0.197-0.1-0.296-0.1-0.395c-0.4,0.592-0.9,1.085-1.5,1.48c0.2,0,0.4,0,0.7,0.099
		C16,13.112,16.4,12.717,16.7,12.421z"/>
	
		<radialGradient id="SVGID_20_" cx="27138.0645" cy="1927.4731" r="819.1924" gradientTransform="matrix(0.0083 -0.0142 0.0144 0.0082 -240.8248 386.9443)" gradientUnits="userSpaceOnUse">
		<stop  offset="0" style="stop-color:#88B0D1"/>
		<stop  offset="0.6353" style="stop-color:#5B94BE"/>
		<stop  offset="1" style="stop-color:#687A8A"/>
	</radialGradient>
	<path fill="url(#SVGID_20_)" d="M15.8,13.605c-0.3-0.099-0.5-0.099-0.7-0.099c-0.6-0.099-1.2,0.099-1.8,0.198
		c-0.2,0.098-0.399,0.197-0.7,0.197c-0.8,0.493-1.5,1.085-2,1.875c-0.1,0.198-0.2,0.395-0.3,0.494c-0.7,1.283-0.7,2.466-0.2,3.848
		c0.5,1.283,1.5,2.368,2.8,2.96c0.5,0.296,1.399,0.494,2.5,0.789c1.3,0.395,2.1,1.579,2.8,3.651c0.1,0.099,0.2-0.395,0.5-1.283
		c0.2-0.987,0.6-1.579,1.1-1.677c0.5,0,0.8-0.691,1.101-1.875c0.2-1.085,0.6-1.973,1.3-2.368c0.7-0.592,0.8-0.987,0.6-1.381
		c-0.3-0.395-0.1-0.789,0.4-1.184c0.2-0.197,0.3-0.197,0.3-0.395c0.1-0.099,0.2-0.197,0.2-0.197c-0.1-0.099-0.2-0.099-0.2-0.099
		c-0.8,0.099-1.7,0-2.6-0.592c-0.101-0.099-0.2-0.099-0.4-0.197c-0.1-0.099-0.3-0.197-0.5-0.296c-0.3-0.296-0.7-0.494-1.1-0.789
		c-0.4-0.494-0.9-0.79-1.5-1.085c-0.101,0-0.2-0.099-0.4-0.198c-0.1,0-0.2-0.099-0.3-0.099c0-0.098-0.2-0.098-0.2-0.098
		C16.3,13.605,16,13.605,15.8,13.605z M14.9,14.888c0.399,0.197,0.6,0.493,0.8,0.79c0.1,0.296,0.1,0.493,0,0.789
		c-0.2,0.198-0.4,0.296-0.7,0.296s-0.7,0-1.1-0.197c-0.3-0.197-0.5-0.493-0.601-0.79c-0.2-0.197-0.3-0.493-0.2-0.69
		c0.2-0.296,0.5-0.395,0.8-0.395C14.3,14.592,14.5,14.69,14.9,14.888z M12.2,16.96c0.1-0.099,0.2-0.099,0.4-0.099
		c0.3,0,0.7,0.099,1,0.296s0.6,0.395,0.7,0.69c0.101,0.296,0.101,0.592,0,0.79c0,0.098,0,0.098-0.1,0.197
		c-0.1,0.197-0.3,0.197-0.6,0.197s-0.6,0-1-0.296c-0.3-0.197-0.6-0.395-0.7-0.69c-0.2-0.296-0.3-0.493-0.101-0.79
		C11.9,17.059,12,17.059,12.2,16.96z M15.7,20.314c0.2-0.395,0.6-0.69,0.8-0.888c0.5-0.691,0.9-1.381,1.1-2.072
		c0.1-0.197,0.1-0.395,0.1-0.592c0.3,0.592,0.5,1.283,0.5,1.776c-0.1,0.789-0.6,1.381-1.5,1.677c-0.3,0.099-0.7,0.198-1.1,0.296
		h-0.1C15.6,20.413,15.7,20.413,15.7,20.314z"/>
	
		<radialGradient id="SVGID_21_" cx="6.1016" cy="29.2944" r="812.3074" gradientTransform="matrix(7.000000e-004 -0.0012 0.0018 9.866747e-004 -235.3209 391.2517)" gradientUnits="userSpaceOnUse">
		<stop  offset="0" style="stop-color:#FFFFFF"/>
		<stop  offset="0.8549" style="stop-color:#FFFFFF"/>
		<stop  offset="1" style="stop-color:#D4D4D4"/>
	</radialGradient>
	<path fill="url(#SVGID_21_)" d="M15.7,15.677c-0.2-0.296-0.4-0.592-0.8-0.79c-0.4-0.197-0.601-0.296-1-0.197
		c-0.3,0-0.601,0.099-0.8,0.395c-0.1,0.197,0,0.494,0.2,0.69c0.101,0.296,0.3,0.592,0.601,0.79c0.399,0.197,0.8,0.197,1.1,0.197
		s0.5-0.098,0.7-0.296C15.8,16.17,15.8,15.973,15.7,15.677z M14.4,15.677c0,0.098-0.101,0.098-0.101,0.098c-0.2,0-0.399,0-0.5-0.098
		c-0.1,0-0.2-0.099-0.2-0.198c0-0.099,0-0.197,0-0.295c0-0.099,0.1-0.099,0.3-0.099c0,0,0.2,0,0.3,0c0.1,0.099,0.2,0.197,0.2,0.296
		C14.5,15.579,14.5,15.579,14.4,15.677z"/>
	<path d="M14.3,15.775c0,0,0.101,0,0.101-0.098c0.1-0.099,0.1-0.099,0-0.296c0-0.099-0.101-0.197-0.2-0.296c-0.1,0-0.3,0-0.3,0
		c-0.2,0-0.3,0-0.3,0.099c0,0.098,0,0.197,0,0.295c0,0.099,0.1,0.198,0.2,0.198C13.9,15.775,14.1,15.775,14.3,15.775z"/>
	
		<radialGradient id="SVGID_22_" cx="6.0996" cy="29.293" r="812.5477" gradientTransform="matrix(7.000000e-004 -0.0012 0.0018 9.866747e-004 -236.7208 393.472)" gradientUnits="userSpaceOnUse">
		<stop  offset="0" style="stop-color:#FFFFFF"/>
		<stop  offset="0.8549" style="stop-color:#FFFFFF"/>
		<stop  offset="1" style="stop-color:#D4D4D4"/>
	</radialGradient>
	<path fill="url(#SVGID_22_)" d="M12.6,16.861c-0.2,0-0.3,0-0.4,0.099c-0.2,0.099-0.3,0.099-0.4,0.295
		c-0.2,0.296-0.1,0.494,0.101,0.79c0.1,0.296,0.399,0.494,0.7,0.69c0.4,0.296,0.7,0.296,1,0.296s0.5,0,0.6-0.197
		c0.1-0.099,0.1-0.099,0.1-0.197c0.101-0.197,0.101-0.493,0-0.79c-0.1-0.296-0.399-0.493-0.7-0.69S12.9,16.861,12.6,16.861z
		 M12.5,17.255c0.1,0,0.2,0,0.3,0.099c0.101,0,0.3,0.197,0.3,0.197c0,0.099,0,0.197,0,0.296c-0.1,0.197-0.2,0.197-0.2,0.197
		c-0.2,0-0.3,0-0.5-0.099c0-0.099-0.101-0.197-0.101-0.296c-0.1,0-0.2-0.099-0.1-0.197C12.3,17.354,12.4,17.255,12.5,17.255z"/>
	<path d="M12.8,17.354c-0.1-0.099-0.2-0.099-0.3-0.099c-0.1,0-0.2,0.099-0.3,0.198c-0.1,0.099,0,0.197,0.1,0.197
		c0,0.099,0.101,0.197,0.101,0.296c0.2,0.099,0.3,0.099,0.5,0.099c0,0,0.1,0,0.2-0.197c0-0.099,0-0.197,0-0.296
		C13.1,17.552,12.9,17.354,12.8,17.354z"/>
	
		<radialGradient id="SVGID_23_" cx="6.0991" cy="29.292" r="815.2788" gradientTransform="matrix(0.0017 -0.0029 0.0029 0.0017 -233.0284 395.1759)" gradientUnits="userSpaceOnUse">
		<stop  offset="0" style="stop-color:#FFFFFF"/>
		<stop  offset="0.8549" style="stop-color:#FFFFFF"/>
		<stop  offset="1" style="stop-color:#D4D4D4"/>
	</radialGradient>
	<path fill="url(#SVGID_23_)" d="M16.5,19.426c-0.2,0.198-0.6,0.494-0.8,0.888c0,0.099-0.1,0.099-0.2,0.197h0.1
		c0.4-0.099,0.8-0.197,1.1-0.296c0.1-0.395,0.3-0.591,0.4-0.986c0.3-0.592,0.5-1.085,0.8-1.579c-0.101-0.099-0.2-0.296-0.3-0.296
		C17.4,18.045,17,18.735,16.5,19.426z"/>
	<path fill="#698AA5" d="M17.6,17.354c0.1,0,0.2,0.197,0.3,0.296c-0.3,0.494-0.5,0.987-0.8,1.579c-0.1,0.395-0.3,0.592-0.4,0.986
		c0.9-0.295,1.4-0.888,1.5-1.677c0-0.494-0.2-1.184-0.5-1.776C17.7,16.96,17.7,17.157,17.6,17.354z"/>
	<path fill="#E30613" d="M15.8,13.605c0.2,0,0.5,0,0.7,0.099c0.2-0.099,0.3-0.296,0.4-0.494c-0.101-0.296-0.101-0.592-0.2-0.79
		C16.4,12.717,16,13.112,15.8,13.605z"/>
	
		<radialGradient id="SVGID_24_" cx="26485.8008" cy="-5207.5757" r="819.0289" gradientTransform="matrix(0.0118 -0.0116 0.0118 0.0116 -239.5182 379.0369)" gradientUnits="userSpaceOnUse">
		<stop  offset="0" style="stop-color:#F9CDBA"/>
		<stop  offset="0.6353" style="stop-color:#E30613"/>
		<stop  offset="1" style="stop-color:#C6452C"/>
	</radialGradient>
	<path fill="url(#SVGID_24_)" d="M16.5,13.704c0,0,0.2,0,0.2,0.098c0.1,0,0.2,0.099,0.3,0.099c0-0.099,0-0.296,0-0.493
		c-0.1,0-0.1-0.099-0.1-0.197C16.8,13.408,16.7,13.605,16.5,13.704z"/>
	
		<radialGradient id="SVGID_25_" cx="14763.0254" cy="-22582.8809" r="819.0658" gradientTransform="matrix(0.0166 0 0 0.0164 -223.8836 377.0601)" gradientUnits="userSpaceOnUse">
		<stop  offset="0" style="stop-color:#88B0D1"/>
		<stop  offset="0.6353" style="stop-color:#5B94BE"/>
		<stop  offset="1" style="stop-color:#687A8A"/>
	</radialGradient>
	<path fill="url(#SVGID_25_)" d="M23.7,17.157c0,0-0.1,0.098-0.2,0.197c0.4,0.197,0.7,0.296,1,0.197
		C24.2,17.453,24,17.255,23.7,17.157L23.7,17.157z"/>
	<path fill="none" stroke="#C26A39" stroke-linecap="round" stroke-linejoin="round" d="M118.4,6.007v17.464
		c0,3.552-1.6,5.328-4.7,5.328H11.3c-3.2,0-4.7-1.776-4.7-5.328V6.007c0-3.65,1.5-5.426,4.7-5.426h102.4
		C116.8,0.581,118.4,2.357,118.4,6.007"/>


</g>
</svg>
